<?xml version="1.0" encoding="UTF-8"?>
<svg id="katman_2" data-name="katman 2" xmlns="http://www.w3.org/2000/svg" viewBox="0 0 258.76 234.02">
  <defs>
    <style>
      .cls-1 {
        fill: #000;
      }

      .cls-1, .cls-2 {
        stroke-width: 0px;
      }

      .cls-2 {
        fill: #0e402d;
      }
    </style>
  </defs>
  <g id="katman_1" data-name="katman 1">
    <g>
      <g>
        <path class="cls-1" d="M.97,114.39l21.75,10.72-.2,3.25-7.2-3.55-15.32,5.05.22-3.5,11.85-3.55-11.31-5.17.2-3.25Z"/>
        <path class="cls-1" d="M4.79,112.17c-1.03-.86-1.75-1.89-2.17-3.1-.42-1.21-.5-2.46-.23-3.76.24-1.17.68-2.15,1.32-2.93s1.36-1.36,2.15-1.75l-2.17-.44.64-3.11,14.92,3.06-.64,3.11-2.22-.46c.6.67,1.04,1.5,1.32,2.5.28,1,.31,2.08.07,3.23-.26,1.28-.83,2.39-1.71,3.32-.88.93-1.97,1.58-3.28,1.96-1.31.38-2.71.42-4.21.11-1.5-.31-2.76-.89-3.79-1.75ZM8.32,101.81c-.84.27-1.54.71-2.07,1.31-.54.61-.89,1.3-1.05,2.1-.16.79-.12,1.57.13,2.34.25.77.7,1.44,1.36,2.01.66.58,1.51.97,2.54,1.18,1.03.21,1.97.18,2.84-.08.86-.26,1.57-.7,2.12-1.31.55-.61.9-1.3,1.06-2.08.16-.79.12-1.57-.14-2.34-.26-.77-.72-1.44-1.4-2.02-.68-.58-1.54-.98-2.56-1.19s-1.97-.18-2.81.09Z"/>
        <path class="cls-1" d="M8.16,86.97c-.13-1.03.02-2.09.42-3.18.46-1.24,1.2-2.26,2.19-3.06,1-.8,2.16-1.28,3.48-1.45,1.32-.17,2.7,0,4.13.54,1.43.54,2.6,1.31,3.51,2.32s1.49,2.15,1.73,3.41c.25,1.26.14,2.51-.33,3.76-.41,1.09-.99,1.97-1.75,2.65-.76.68-1.56,1.17-2.42,1.45l8.85,3.32-1.1,2.95-21.04-7.88,1.11-2.95,2.1.79c-.47-.75-.76-1.63-.89-2.67ZM14.49,82.49c-.87.14-1.61.47-2.23.99-.62.53-1.07,1.17-1.36,1.93-.28.74-.35,1.52-.22,2.32.13.81.48,1.55,1.06,2.23.57.68,1.35,1.2,2.33,1.57.98.37,1.92.49,2.8.36.89-.13,1.64-.46,2.27-.98.63-.52,1.08-1.15,1.36-1.9.28-.76.36-1.54.22-2.35-.14-.81-.5-1.56-1.09-2.24-.59-.68-1.38-1.21-2.36-1.58s-1.91-.48-2.78-.35Z"/>
        <path class="cls-1" d="M16.37,74.76c-.71-1.13-1.08-2.34-1.11-3.62-.03-1.28.29-2.49.94-3.64.59-1.04,1.31-1.83,2.16-2.38s1.71-.88,2.58-1l-1.92-1.09,1.57-2.76,13.24,7.51-1.57,2.76-1.97-1.12c.36.82.52,1.75.48,2.79-.04,1.04-.35,2.07-.93,3.09-.65,1.14-1.53,2.01-2.65,2.63-1.12.61-2.36.9-3.73.86s-2.71-.44-4.04-1.2c-1.33-.75-2.35-1.7-3.06-2.83ZM22.93,66c-.89,0-1.68.2-2.38.61-.7.41-1.25.97-1.65,1.67s-.6,1.46-.6,2.26.22,1.58.68,2.34c.45.75,1.13,1.39,2.05,1.91.91.52,1.82.79,2.72.8.9.01,1.71-.18,2.42-.6.71-.41,1.26-.96,1.65-1.65.4-.71.6-1.46.59-2.27s-.24-1.59-.71-2.36c-.47-.76-1.16-1.4-2.07-1.92-.91-.52-1.81-.78-2.7-.79Z"/>
        <path class="cls-1" d="M32.12,44.96l11.94,21.11-2,2.57-3.95-6.99-15.5-4.46,2.15-2.77,11.79,3.74-6.43-10.64,2-2.57Z"/>
        <path class="cls-1" d="M50.71,44.34l5.16-4.59,1.71,1.92-7.88,7.02-1.71-1.92-1.53-12.14-5.18,4.61-1.71-1.92,7.88-7.02,1.71,1.92,1.55,12.13Z"/>
        <path class="cls-1" d="M66.88,27.13l-9.55,6.64c.77.95,1.7,1.49,2.78,1.63,1.09.14,2.11-.12,3.08-.79,1.39-.97,1.97-2.23,1.74-3.8l2.79-1.94c.42,1.41.39,2.83-.09,4.25s-1.46,2.64-2.92,3.66c-1.2.83-2.45,1.31-3.77,1.42-1.32.12-2.58-.12-3.8-.72s-2.27-1.55-3.16-2.83c-.89-1.29-1.42-2.6-1.57-3.94-.16-1.34.05-2.6.63-3.79s1.48-2.21,2.71-3.06c1.18-.82,2.41-1.29,3.69-1.42,1.28-.13,2.5.1,3.66.67s2.16,1.46,3,2.67c.33.47.59.91.79,1.33ZM62.82,26.85c-.68-.94-1.55-1.47-2.61-1.58-1.07-.11-2.09.17-3.07.86-.89.62-1.46,1.43-1.7,2.44-.24,1.01-.09,2.04.46,3.09l6.92-4.81Z"/>
        <path class="cls-1" d="M74.57,21.78l9.71,3.57-3.79,1.94-8-3.27,2.98,5.83-2.8,1.43-9.3-18.21,2.8-1.43,5.41,10.58,1.89-8.45,3.89-1.99-2.78,9.99Z"/>
        <path class="cls-1" d="M80.81,14.1c.21-1.32.72-2.47,1.54-3.45.82-.98,1.85-1.69,3.1-2.13,1.13-.4,2.19-.52,3.19-.37,1,.15,1.87.46,2.6.95l-.73-2.09,3-1.05,5.04,14.37-3,1.05-.75-2.14c-.27.86-.75,1.66-1.46,2.42-.71.76-1.62,1.33-2.73,1.72-1.24.43-2.48.51-3.72.24-1.25-.27-2.37-.88-3.37-1.8-1-.93-1.75-2.11-2.26-3.56-.51-1.44-.65-2.83-.45-4.15ZM91.51,11.81c-.67-.59-1.39-.96-2.19-1.11-.79-.15-1.57-.09-2.34.18s-1.41.71-1.94,1.31-.87,1.34-1.03,2.21-.06,1.79.29,2.78c.35.99.86,1.79,1.53,2.39.67.6,1.41.98,2.22,1.14s1.58.1,2.33-.16c.76-.27,1.41-.71,1.94-1.32s.86-1.36,1.01-2.24.05-1.82-.3-2.81c-.35-.99-.85-1.78-1.52-2.37Z"/>
        <path class="cls-1" d="M98.33.78l3.34-.78-1.33,7.06-2.15.5.15-6.79Z"/>
        <path class="cls-1" d="M116.11,2.22c1.01.37,1.84,1,2.5,1.89.66.9,1.08,2.03,1.26,3.4l1.2,8.9-3.09.42-1.13-8.44c-.18-1.35-.66-2.34-1.43-2.97s-1.74-.87-2.91-.71c-1.17.16-2.05.64-2.63,1.46s-.79,1.89-.61,3.25l1.13,8.43-3.12.42-2.03-15.09,3.12-.42.23,1.73c.43-.69,1.02-1.26,1.76-1.71.75-.45,1.57-.74,2.46-.86,1.19-.16,2.28-.06,3.29.31Z"/>
        <path class="cls-1" d="M126.97,1.12l.47,15.22-3.15.1-.47-15.22,3.15-.1Z"/>
        <path class="cls-1" d="M142.66,2.22c.91.56,1.6,1.35,2.06,2.36.46,1.01.65,2.21.55,3.58l-.64,8.96-3.12-.22.6-8.49c.1-1.36-.17-2.43-.8-3.2s-1.53-1.2-2.71-1.29c-1.18-.08-2.13.21-2.88.89-.74.68-1.16,1.7-1.26,3.05l-.6,8.49-3.14-.22,1.08-15.19,3.14.22-.12,1.74c.56-.59,1.25-1.03,2.07-1.32.82-.29,1.69-.41,2.59-.34,1.19.08,2.25.41,3.16.97Z"/>
        <path class="cls-1" d="M157.95,7.62c.94-.95,2.03-1.58,3.27-1.9,1.24-.32,2.5-.29,3.79.09,1.13.33,2.07.86,2.8,1.58.74.72,1.25,1.47,1.54,2.27l.63-2.12,3.05.9-6.36,21.55-3.05-.9,2.67-9.06c-.67.51-1.52.87-2.56,1.06-1.04.19-2.13.12-3.28-.22-1.25-.37-2.3-1.03-3.15-1.98-.84-.95-1.4-2.09-1.67-3.43s-.19-2.74.25-4.21c.43-1.47,1.12-2.67,2.06-3.63ZM167.97,12.02c-.2-.87-.57-1.59-1.13-2.18s-1.22-1-2-1.22c-.78-.23-1.56-.25-2.34-.07-.78.18-1.49.58-2.12,1.19-.63.61-1.1,1.42-1.39,2.43s-.35,1.95-.16,2.83c.19.88.57,1.62,1.13,2.22.56.6,1.22,1.01,1.98,1.23.78.23,1.56.25,2.35.06.79-.19,1.5-.6,2.13-1.23s1.1-1.45,1.4-2.45c.3-1.01.35-1.94.15-2.81Z"/>
        <path class="cls-1" d="M190.57,16.26l-6.48,13.78-2.85-1.34.76-1.63c-.72.36-1.51.53-2.39.51-.88-.02-1.73-.22-2.54-.6-1.08-.51-1.95-1.19-2.6-2.04-.65-.85-1.01-1.84-1.08-2.95-.08-1.12.18-2.3.77-3.55l3.81-8.1,2.83,1.33-3.61,7.68c-.58,1.23-.72,2.33-.41,3.27.31.95,1,1.67,2.06,2.17,1.07.5,2.07.57,3,.21.93-.36,1.69-1.16,2.27-2.4l3.61-7.68,2.85,1.34Z"/>
        <path class="cls-1" d="M197.46,20.44l-7.87,13.03-2.7-1.63,7.87-13.03,2.7,1.63ZM196.24,16.68c-.13-.53-.05-1.04.25-1.53.29-.49.71-.8,1.24-.93.53-.13,1.04-.05,1.53.25.47.29.78.69.91,1.23.13.53.05,1.04-.25,1.53-.29.49-.71.8-1.24.93-.53.13-1.03.05-1.51-.23-.49-.29-.8-.71-.93-1.24Z"/>
        <path class="cls-1" d="M196.08,34.69l5.61,4.04-1.5,2.09-8.57-6.17,1.5-2.09,11.52-4.13-5.63-4.05,1.5-2.08,8.57,6.17-1.5,2.09-11.5,4.15Z"/>
        <path class="cls-1" d="M216.07,38.92c1.29-.34,2.56-.34,3.78.01,1.23.35,2.3,1.02,3.22,2,.68.73,1.19,1.59,1.54,2.59.35,1,.45,1.96.32,2.86l5.36-5.03,2.17,2.32-14.91,13.99-2.17-2.32,1.67-1.57c-.89.13-1.82.02-2.79-.31-.97-.34-1.86-.94-2.67-1.8-.91-.97-1.49-2.08-1.75-3.34-.26-1.26-.17-2.53.28-3.82.44-1.29,1.22-2.46,2.34-3.5,1.11-1.05,2.32-1.74,3.61-2.08ZM222.49,47.79c.27-.85.31-1.66.13-2.45-.18-.79-.55-1.48-1.11-2.07-.55-.59-1.22-1.01-1.98-1.25-.77-.24-1.58-.26-2.43-.05-.85.21-1.66.67-2.43,1.39-.77.72-1.29,1.51-1.57,2.36s-.33,1.69-.15,2.49c.18.8.54,1.49,1.09,2.07.55.59,1.22,1,1.99,1.24s1.6.24,2.46.02,1.68-.69,2.45-1.41c.77-.72,1.28-1.5,1.55-2.34Z"/>
        <path class="cls-1" d="M239.84,62.85l-12.54,8.63-1.79-2.59,1.48-1.02c-.8-.05-1.57-.31-2.32-.77-.75-.46-1.38-1.06-1.89-1.8-.68-.99-1.08-2.01-1.21-3.08-.13-1.06.06-2.1.55-3.1.5-1,1.31-1.89,2.45-2.68l7.38-5.07,1.77,2.57-6.99,4.81c-1.12.77-1.79,1.65-2,2.62-.21.97.01,1.95.68,2.92.67.97,1.5,1.54,2.49,1.69.99.16,2.05-.15,3.17-.92l6.99-4.81,1.79,2.6ZM235.9,52.9c.08-.45.31-.8.69-1.06.38-.26.79-.35,1.24-.27s.8.31,1.06.69c.26.38.35.79.27,1.24s-.31.8-.69,1.06c-.38.26-.79.35-1.24.27s-.8-.31-1.06-.69c-.26-.38-.35-.79-.27-1.24ZM238.59,56.82c.08-.45.31-.8.69-1.06.38-.26.79-.35,1.24-.27.45.08.8.31,1.06.69.26.38.35.79.27,1.24-.08.45-.31.8-.69,1.06-.38.26-.79.35-1.24.27s-.8-.31-1.06-.69c-.26-.38-.35-.79-.27-1.24Z"/>
        <path class="cls-1" d="M246.89,77.52c-.03,1.07-.37,2.06-1.01,2.97s-1.58,1.67-2.83,2.27l-8.07,3.94-1.37-2.81,7.65-3.73c1.22-.6,2.01-1.36,2.37-2.29.35-.93.27-1.93-.24-2.99-.52-1.06-1.25-1.74-2.21-2.04-.96-.3-2.05-.15-3.27.44l-7.65,3.73-1.38-2.83,13.68-6.68,1.38,2.83-1.56.76c.79.19,1.52.57,2.18,1.13.67.57,1.2,1.26,1.59,2.07.52,1.08.77,2.15.74,3.22Z"/>
        <path class="cls-1" d="M254.57,97.2l-24.18-1.87-1.02-3.1,8,.62,12.35-10.38,1.1,3.33-9.68,7.7,12.42.59,1.02,3.1Z"/>
        <path class="cls-1" d="M251.85,100.73c1.27.42,2.33,1.11,3.16,2.07.84.96,1.37,2.1,1.61,3.4.21,1.18.16,2.25-.14,3.21s-.75,1.77-1.35,2.42l2.18-.39.56,3.13-14.99,2.68-.56-3.13,2.23-.4c-.8-.4-1.52-1.01-2.15-1.83s-1.05-1.81-1.26-2.97c-.23-1.29-.11-2.53.36-3.71.47-1.19,1.24-2.2,2.32-3.04,1.08-.84,2.37-1.39,3.87-1.66s2.89-.2,4.17.22ZM252.41,111.67c.68-.56,1.17-1.22,1.44-1.98.28-.76.34-1.54.2-2.34-.14-.8-.47-1.51-.98-2.13-.51-.62-1.18-1.07-2.01-1.37-.83-.29-1.76-.34-2.79-.16-1.03.19-1.9.56-2.61,1.13-.7.57-1.2,1.23-1.48,2.01-.28.77-.36,1.55-.22,2.33.14.8.48,1.5,1,2.12.52.62,1.21,1.07,2.05,1.36.85.29,1.79.34,2.82.16,1.03-.19,1.89-.56,2.58-1.12Z"/>
        <path class="cls-1" d="M243.58,122.74c.39-.96.96-1.74,1.68-2.32s1.54-.91,2.46-.98l.13,3.26c-.64.08-1.17.41-1.58.99-.41.58-.6,1.29-.57,2.14.04.88.23,1.56.59,2.04.36.47.81.7,1.34.68.57-.02.98-.31,1.24-.86.25-.55.53-1.43.81-2.62.27-1.15.54-2.1.8-2.83.27-.73.69-1.37,1.28-1.92.59-.55,1.38-.84,2.37-.88.81-.03,1.56.18,2.25.63s1.25,1.12,1.67,2c.42.88.65,1.9.7,3.06.07,1.73-.32,3.14-1.15,4.23-.83,1.09-2,1.71-3.51,1.84l-.12-3.15c.68-.08,1.21-.38,1.6-.89s.56-1.19.53-2.04c-.03-.83-.21-1.46-.54-1.89-.33-.43-.75-.63-1.27-.61-.41.02-.74.18-1,.48s-.47.67-.61,1.1c-.14.43-.31,1.06-.52,1.9-.25,1.12-.51,2.03-.79,2.75-.28.72-.7,1.35-1.27,1.89-.57.54-1.34.84-2.32.89-.87.03-1.65-.17-2.35-.63-.7-.45-1.26-1.11-1.68-1.97-.42-.86-.65-1.88-.7-3.06-.05-1.2.13-2.28.52-3.24Z"/>
        <path class="cls-1" d="M258.37,138.35l-15.21-.75.16-3.15,15.21.75-.16,3.15Z"/>
      </g>
      <path class="cls-2" d="M86.55,78.7c-7.4,2.29-12.51,9.18-12.56,17.94.25,5.54,2.96,10.72,8.57,14.31,1.44.92,2.2.96,3.14-.79,4.79-8.82,11.49-15.91,20.06-21.15,1.73-1.06,1.78-1.85.7-3.41-4.39-6.32-12.51-9.19-19.91-6.9ZM165.34,98.58c-16.28-11.03-33.49-12.88-51.07-4.06-17.65,8.86-26.09,24-26.98,41.83.18,12.42,3.32,22.12,9.57,30.85,1.34,1.87,2.06,2.1,3.83.32,21.59-21.72,43.24-43.38,64.97-64.96,1.84-1.82,1.73-2.6-.31-3.99ZM154.43,126.27c-9.19,9.27-18.42,18.49-27.69,27.68-1.34,1.33-.63,1.73.58,2.23,2.85,1.19,5.79,1.91,8.89,1.91,15.92.02,26.85-16.24,20.65-30.79-.4-.95-.51-2.98-2.43-1.04ZM75.62,118.96c.94-.78.87-1.33-.14-2.13-1.51-1.21-3.1-2.48-4.17-4.05-1.43-2.11-2.29-1.4-3.66-.02-13.19,13.22-26.39,26.43-39.59,39.64.82,3.77,1.83,7.46,3.05,11.06,14.57-14.57,29.14-29.14,43.72-43.71.26-.26.51-.54.8-.78ZM129.42,26.57c-57.29,0-103.72,46.44-103.72,103.72,0,3.81.21,7.57.61,11.28,12.68-12.68,25.36-25.38,38.06-38.05,1.14-1.14,1.33-2.21,1.08-3.71-2.07-12.38,5.09-24.65,16.9-29.09,11.84-4.45,25.2-.08,31.88,10.68,1.28,2.06,2.24,2.3,4.52,1.63,21.73-6.33,41.02-1.85,57.74,13.45,2.8,2.56,2.8,4.9.11,7.63-4.1,4.17-8.19,8.35-12.41,12.4-1.44,1.38-1.59,2.34-.59,4.16,11.63,21.03-3.82,46.65-27.85,46.26-5.28-.08-10.31-1.39-14.82-4.17-1.58-.97-2.38-.62-3.5.53-4.87,4.97-9.81,9.88-14.75,14.78-3.07,3.05-5.34,3.04-8.25-.1-12.1-13.06-17.32-28.45-15.59-46.18.08-.83.15-1.66.19-2.5,0-.15-.12-.3-.21-.51-1.01.17-1.47,1.05-2.09,1.67-14.03,14.01-28.05,28.04-42.07,42.06,16.17,36.23,52.52,61.49,94.76,61.49,57.29,0,103.72-46.44,103.72-103.72S186.7,26.57,129.42,26.57ZM154.13,197.95c-.11,2.83-1.96,4.7-4.47,4.68-2.51-.02-4.34-1.91-4.39-4.76-.07-4.27-.08-8.53,0-12.8.05-2.82,1.94-4.7,4.46-4.68,2.51.02,4.26,1.91,4.41,4.75,0,.19,0,.37,0,.56,0,1.95,0,3.9,0,5.84,0,2.13.06,4.27-.02,6.4ZM187.56,184.18c-1.71.94-3.52.92-4.92-.41-3.29-3.12-6.55-6.29-9.6-9.63-1.65-1.81-1.43-4.01.29-5.76,1.72-1.75,3.95-2.03,5.76-.4,3.43,3.1,6.63,6.45,9.87,9.76.64.65.92,1.6.87,2.3-.02,2-.76,3.33-2.26,4.15ZM198.52,149.16c-2.22.09-4.45.02-6.68.02-2.13,0-4.27.07-6.4-.02-2.66-.12-4.48-1.92-4.54-4.33-.06-2.52,1.81-4.47,4.61-4.52,4.36-.09,8.72-.09,13.08,0,2.66.06,4.48,1.91,4.54,4.32.06,2.51-1.82,4.42-4.62,4.53Z"/>
    </g>
  </g>
</svg>