<?xml version="1.0" encoding="UTF-8"?>
<svg id="katman_2" data-name="katman 2" xmlns="http://www.w3.org/2000/svg" viewBox="0 0 717.18 192.84">
  <defs>
    <style>
      .cls-1 {
        fill: #000;
      }

      .cls-1, .cls-2 {
        stroke-width: 0px;
      }

      .cls-2 {
        fill: #0e402d;
      }
    </style>
  </defs>
  <g id="katman_1" data-name="katman 1">
    <g>
      <g>
        <path class="cls-2" d="M69.56,39.01c12.93,0,20.74,1.14,23.43,3.41,3.16,1.65,5.57,4.82,7.22,9.5.48,2,.72,3.03.72,3.1,0,1.31-.07,5.57-.21,12.8-.14,57.18-.21,91.96-.21,104.34,0,8.94-4.06,14.72-12.18,17.34-1.24.34-2.44.52-3.61.52h-1.03c-5.99,0-10.73-3.2-14.24-9.6-.9-2.27-1.34-4.27-1.34-5.99v-18.47c0-.21-2.24-.55-6.71-1.03-9.63-1.86-16.86-3.85-21.67-5.99-4.89-1.92-9.74-4.5-14.55-7.74-10.8-7.22-18.34-17.24-22.6-30.03-1.72-5.92-2.58-11.21-2.58-15.89v-5.68c0-7.91,2.44-16.03,7.33-24.36,11.77-17.48,32.51-26.21,62.23-26.21ZM32.41,92.06v.83c0,14.31,8.91,23.7,26.73,28.17,4.33,1.24,7.36,1.86,9.08,1.86.14-24.63.21-41.76.21-51.4h-.31c-12.38,0-22.22,2.37-29.52,7.12-4.13,3.03-6.19,7.5-6.19,13.42Z"/>
        <path class="cls-2" d="M134.06,40.87c5.64,0,10.29,2.75,13.93,8.26,1.45,2.75,2.17,5.3,2.17,7.64-.41,6.33-.62,11.73-.62,16.2,0,21.54,2.99,36.84,8.98,45.93,1.65,2.27,3.71,3.41,6.19,3.41,3.85,0,7.36-3.1,10.53-9.29,1.58-2.68,3.37-7.22,5.37-13.62,1.92-5.3,3.78-14.45,5.57-27.45.62-5.5,1.1-11.01,1.44-16.51.83-3.92,2.24-6.85,4.23-8.77,3.44-3.44,7.4-5.16,11.87-5.16,5.3,0,9.8,2.55,13.52,7.64,1.79,2.13,2.68,6.74,2.68,13.83,1.51,46.92,2.27,72.24,2.27,75.96,0,5.64-2.72,10.25-8.15,13.83-2.62,1.44-5.33,2.17-8.15,2.17-6.26,0-11.22-3.3-14.86-9.91h-.21c-7.71,6.4-16.44,9.6-26.21,9.6-13.69,0-24.87-6.23-33.54-18.68-9.29-14.04-13.93-35.02-13.93-62.96,0-12.38.65-19.82,1.96-22.29,3.44-6.54,8.43-9.8,14.96-9.8Z"/>
        <path class="cls-2" d="M254.3,0h1.34c5.5,0,10.29,2.68,14.35,8.05,2.06,3.3,3.1,6.47,3.1,9.5v2.06c0,3.78-1.51,7.57-4.54,11.35-4.27,4.47-8.98,6.71-14.14,6.71h-1.34c-3.92,0-7.74-1.55-11.46-4.64-3.79-3.85-5.68-7.95-5.68-12.28v-1.96c0-4.2,1.72-8.36,5.16-12.49,4.06-4.2,8.46-6.3,13.21-6.3ZM256.05,41.8h1.14c5.78,0,10.49,3.03,14.14,9.08,1.03,1.79,1.55,4.95,1.55,9.49,1.17,44.86,1.79,71.28,1.86,79.26,0,4.4-2.31,8.53-6.92,12.38-3.03,1.93-5.95,2.89-8.77,2.89h-.83c-5.3,0-9.77-2.58-13.42-7.74-1.72-2.13-2.58-6.3-2.58-12.49-1.17-49.06-1.75-74.99-1.75-77.82,0-4.2,2.13-8.19,6.4-11.97,3.16-2.06,6.23-3.1,9.19-3.1Z"/>
        <path class="cls-2" d="M376.29,37.88c3.16,0,6.54,1.55,10.11,4.64,3.23,3.51,4.85,7.26,4.85,11.25v.62c0,4.68-2.37,9.29-7.12,13.83l-46.96,53.15v.21c20.64-.48,31.82-.72,33.54-.72,3.44,0,6.95,1.62,10.53,4.85,3.1,3.37,4.64,6.98,4.64,10.84v.93c0,5.16-2.55,9.6-7.64,13.31-2.2,1.72-6.37,2.58-12.49,2.58-41.76,1.03-63.95,1.55-66.57,1.55-4.13,0-8.02-2.03-11.66-6.09-2.41-3.23-3.61-6.5-3.61-9.8v-.62c0-4.61,2.37-9.22,7.12-13.83l47.58-53.87c0-.14-.04-.21-.1-.21-4.82,0-15.31.07-31.48.21-3.1,0-6.37-1.44-9.8-4.33-3.44-3.37-5.16-7.16-5.16-11.35v-1.03c0-5.5,2.82-10.08,8.46-13.73,2.68-1.31,4.88-1.96,6.61-1.96l69.15-.41Z"/>
        <path class="cls-2" d="M489.2,37.88c3.16,0,6.54,1.55,10.11,4.64,3.23,3.51,4.85,7.26,4.85,11.25v.62c0,4.68-2.37,9.29-7.12,13.83l-46.96,53.15v.21c20.64-.48,31.82-.72,33.54-.72,3.44,0,6.95,1.62,10.53,4.85,3.1,3.37,4.64,6.98,4.64,10.84v.93c0,5.16-2.55,9.6-7.64,13.31-2.2,1.72-6.37,2.58-12.49,2.58-41.76,1.03-63.95,1.55-66.57,1.55-4.13,0-8.02-2.03-11.66-6.09-2.41-3.23-3.61-6.5-3.61-9.8v-.62c0-4.61,2.37-9.22,7.12-13.83l47.58-53.87c0-.14-.04-.21-.1-.21-4.82,0-15.31.07-31.48.21-3.1,0-6.37-1.44-9.8-4.33-3.44-3.37-5.16-7.16-5.16-11.35v-1.03c0-5.5,2.82-10.08,8.46-13.73,2.68-1.31,4.88-1.96,6.61-1.96l69.15-.41Z"/>
        <path class="cls-2" d="M529.45,118.89h1.96c5.92,0,10.97,3.13,15.17,9.39,1.38,2.96,2.06,5.47,2.06,7.53v1.03c0,.07.07.1.21.1l-.21.31v.72c0,5.44-2.75,10.11-8.26,14.04-3.23,1.93-6.57,2.89-10.01,2.89h-.83c-6.67,0-12.01-3.3-16-9.91-1.1-2.61-1.65-4.95-1.65-7.02v-1.55c0-5.71,2.92-10.66,8.77-14.86,3.1-1.79,6.02-2.68,8.77-2.68Z"/>
        <path class="cls-2" d="M613.87,35.19c11.49,0,23.63,2.44,36.43,7.33,6.26,3.51,9.39,8.53,9.39,15.07l-.1,1.55c2.75,2.89,4.13,7.64,4.13,14.24.14,0,.21,2.24.21,6.71s-.04,8.88-.1,13.42c.55,25.94.83,40.63.83,44.07,0,4.75-2.24,8.98-6.71,12.69-3.03,2.06-6.23,3.1-9.6,3.1-4.61,0-8.71-1.89-12.28-5.68l-.21-.1c-9.84,4.89-19.23,7.33-28.17,7.33h-2.79c-10.73,0-20.68-3.44-29.83-10.32-12.38-10.46-18.58-25.25-18.58-44.38,0-21.95,6.19-38.98,18.58-51.09,10.32-9.29,23.25-13.93,38.81-13.93ZM588.89,99.9c0,10.94,2.89,17.89,8.67,20.85,2.34,1.17,5.19,1.75,8.57,1.75h.21c6.88,0,12.9-2.03,18.06-6.09,1.1-1.17,2.24-3.23,3.41-6.19,2.34-7.29,3.51-13.9,3.51-19.82,0-2.82-.07-9.56-.21-20.23-6.33-1.72-12.14-2.58-17.44-2.58-10.67,0-17.68,3.89-21.05,11.66-2.48,6.12-3.72,13-3.72,20.64Z"/>
        <path class="cls-2" d="M696.74,0h1.34c5.5,0,10.29,2.68,14.35,8.05,2.06,3.3,3.1,6.47,3.1,9.5v2.06c0,3.78-1.51,7.57-4.54,11.35-4.27,4.47-8.98,6.71-14.14,6.71h-1.34c-3.92,0-7.74-1.55-11.46-4.64-3.79-3.85-5.68-7.95-5.68-12.28v-1.96c0-4.2,1.72-8.36,5.16-12.49,4.06-4.2,8.46-6.3,13.21-6.3ZM698.5,41.8h1.14c5.78,0,10.49,3.03,14.14,9.08,1.03,1.79,1.55,4.95,1.55,9.49,1.17,44.86,1.79,71.28,1.86,79.26,0,4.4-2.31,8.53-6.92,12.38-3.03,1.93-5.95,2.89-8.77,2.89h-.83c-5.3,0-9.77-2.58-13.42-7.74-1.72-2.13-2.58-6.3-2.58-12.49-1.17-49.06-1.75-74.99-1.75-77.82,0-4.2,2.13-8.19,6.4-11.97,3.16-2.06,6.23-3.1,9.19-3.1Z"/>
      </g>
      <g>
        <path class="cls-1" d="M133.45,170.38l-9.34,22.38h-3.26l3.09-7.41-6-14.98h3.51l4.28,11.61,4.45-11.61h3.26Z"/>
        <path class="cls-1" d="M134.91,173.86c.64-1.18,1.5-2.1,2.6-2.75,1.1-.65,2.31-.98,3.63-.98,1.2,0,2.24.23,3.14.7s1.61,1.05,2.14,1.75v-2.21h3.18v15.23h-3.18v-2.27c-.53.72-1.26,1.32-2.18,1.8-.92.48-1.97.72-3.15.72-1.31,0-2.51-.34-3.59-1.01-1.09-.67-1.95-1.61-2.58-2.82-.64-1.21-.95-2.57-.95-4.1s.32-2.88.95-4.06ZM145.77,175.24c-.43-.77-1-1.36-1.7-1.77-.7-.4-1.46-.61-2.27-.61s-1.57.2-2.27.59c-.7.4-1.27.98-1.7,1.74-.43.76-.65,1.67-.65,2.72s.22,1.97.65,2.76c.43.79,1,1.4,1.71,1.81.71.41,1.46.62,2.25.62s1.57-.2,2.27-.61c.7-.41,1.27-1,1.7-1.78.43-.78.65-1.7.65-2.75s-.22-1.96-.65-2.74Z"/>
        <path class="cls-1" d="M158.73,170.85c.92-.48,1.96-.72,3.12-.72,1.33,0,2.54.33,3.63.98,1.1.65,1.96,1.57,2.58,2.75s.94,2.53.94,4.06-.31,2.9-.94,4.1-1.49,2.15-2.58,2.82c-1.1.67-2.31,1.01-3.63,1.01-1.16,0-2.19-.24-3.09-.71-.9-.47-1.64-1.05-2.21-1.75v9.45h-3.15v-22.46h3.15v2.24c.53-.7,1.26-1.29,2.18-1.77ZM165.15,175.2c-.43-.76-1-1.34-1.71-1.74-.71-.4-1.47-.59-2.28-.59s-1.54.2-2.25.61c-.71.41-1.28,1-1.71,1.77-.43.77-.65,1.69-.65,2.74s.22,1.97.65,2.75,1,1.38,1.71,1.78,1.46.61,2.25.61,1.57-.21,2.28-.62c.71-.42,1.28-1.02,1.71-1.81.43-.79.65-1.71.65-2.76s-.22-1.96-.65-2.72Z"/>
        <path class="cls-1" d="M171.93,173.86c.64-1.18,1.5-2.1,2.6-2.75,1.1-.65,2.31-.98,3.63-.98,1.2,0,2.24.23,3.14.7s1.61,1.05,2.14,1.75v-2.21h3.18v15.23h-3.18v-2.27c-.54.72-1.26,1.32-2.18,1.8-.92.48-1.97.72-3.15.72-1.31,0-2.51-.34-3.59-1.01-1.09-.67-1.95-1.61-2.58-2.82s-.95-2.57-.95-4.1.32-2.88.95-4.06ZM182.79,175.24c-.43-.77-1-1.36-1.7-1.77-.7-.4-1.46-.61-2.27-.61s-1.57.2-2.27.59c-.7.4-1.27.98-1.7,1.74s-.65,1.67-.65,2.72.22,1.97.65,2.76c.43.79,1,1.4,1.71,1.81.71.41,1.46.62,2.25.62s1.57-.2,2.27-.61c.7-.41,1.27-1,1.7-1.78.43-.78.65-1.7.65-2.75s-.22-1.96-.65-2.74Z"/>
        <path class="cls-1" d="M204.22,170.38l-9.34,22.38h-3.26l3.09-7.41-6-14.98h3.51l4.28,11.61,4.45-11.61h3.26Z"/>
        <path class="cls-1" d="M216.57,183.03h6.91v2.57h-10.56v-2.57l6.94-10.09h-6.94v-2.57h10.56v2.57l-6.91,10.09Z"/>
        <path class="cls-1" d="M239.97,179.16h-11.63c.09,1.22.54,2.19,1.35,2.93.81.74,1.81,1.1,2.98,1.1,1.7,0,2.89-.71,3.59-2.13h3.4c-.46,1.4-1.29,2.55-2.5,3.44-1.21.89-2.7,1.34-4.49,1.34-1.46,0-2.76-.33-3.91-.98-1.15-.65-2.05-1.58-2.71-2.76-.65-1.19-.98-2.57-.98-4.13s.32-2.94.95-4.13c.63-1.19,1.53-2.1,2.68-2.75,1.15-.64,2.47-.97,3.96-.97s2.72.31,3.84.94c1.12.63,2,1.51,2.62,2.64.62,1.13.94,2.44.94,3.91,0,.57-.04,1.09-.11,1.55ZM236.79,176.62c-.02-1.16-.43-2.09-1.24-2.79-.81-.7-1.81-1.05-3.01-1.05-1.09,0-2.02.35-2.79,1.04s-1.23,1.63-1.38,2.8h8.43Z"/>
        <path class="cls-1" d="M248.97,178l7.02,7.6h-4.25l-5.64-6.55v6.55h-3.15v-20.45h3.15v11.88l5.53-6.66h4.37l-7.02,7.63Z"/>
        <path class="cls-1" d="M257.04,173.86c.64-1.18,1.5-2.1,2.6-2.75,1.1-.65,2.31-.98,3.63-.98,1.2,0,2.24.23,3.14.7s1.61,1.05,2.14,1.75v-2.21h3.18v15.23h-3.18v-2.27c-.53.72-1.26,1.32-2.18,1.8-.92.48-1.97.72-3.15.72-1.31,0-2.5-.34-3.59-1.01-1.09-.67-1.95-1.61-2.58-2.82s-.95-2.57-.95-4.1.32-2.88.95-4.06ZM267.9,175.24c-.43-.77-1-1.36-1.7-1.77-.7-.4-1.46-.61-2.27-.61s-1.57.2-2.27.59c-.7.4-1.27.98-1.7,1.74s-.65,1.67-.65,2.72.22,1.97.65,2.76c.43.79,1,1.4,1.71,1.81.71.41,1.46.62,2.25.62s1.57-.2,2.27-.61,1.27-1,1.7-1.78.65-1.7.65-2.75-.22-1.96-.65-2.74Z"/>
        <path class="cls-1" d="M276.44,166.4h3.43l-2.9,6.58h-2.21l1.69-6.58Z"/>
        <path class="cls-1" d="M292.49,170.88c.95.5,1.69,1.23,2.22,2.21.53.98.8,2.16.8,3.54v8.98h-3.12v-8.51c0-1.36-.34-2.41-1.02-3.14-.68-.73-1.61-1.09-2.79-1.09s-2.11.36-2.8,1.09c-.69.73-1.04,1.77-1.04,3.14v8.51h-3.15v-15.23h3.15v1.74c.52-.63,1.17-1.11,1.98-1.46.8-.35,1.65-.52,2.56-.52,1.2,0,2.27.25,3.22.75Z"/>
        <path class="cls-1" d="M302.33,170.38v15.23h-3.15v-15.23h3.15Z"/>
        <path class="cls-1" d="M317,170.88c.95.5,1.69,1.23,2.22,2.21.53.98.8,2.16.8,3.54v8.98h-3.12v-8.51c0-1.36-.34-2.41-1.02-3.14-.68-.73-1.61-1.09-2.79-1.09s-2.11.36-2.8,1.09c-.69.73-1.04,1.77-1.04,3.14v8.51h-3.15v-15.23h3.15v1.74c.52-.63,1.17-1.11,1.98-1.46.8-.35,1.65-.52,2.56-.52,1.2,0,2.27.25,3.22.75Z"/>
        <path class="cls-1" d="M331.12,173.86c.64-1.18,1.5-2.1,2.6-2.75,1.1-.65,2.32-.98,3.66-.98,1.18,0,2.22.24,3.14.72.91.48,1.62,1.06,2.11,1.74v-2.21h3.18v22.46h-3.18v-9.45c-.5.68-1.22,1.26-2.16,1.74s-2.01.72-3.21.72c-1.31,0-2.5-.34-3.58-1.01-1.08-.67-1.93-1.61-2.57-2.82s-.95-2.57-.95-4.1.32-2.88.95-4.06ZM341.98,175.24c-.43-.77-1-1.36-1.7-1.77-.7-.4-1.46-.61-2.27-.61s-1.57.2-2.27.59c-.7.4-1.27.98-1.7,1.74s-.65,1.67-.65,2.72.22,1.97.65,2.76c.43.79,1,1.4,1.71,1.81.71.41,1.46.62,2.25.62s1.57-.2,2.27-.61,1.27-1,1.7-1.78.65-1.7.65-2.75-.22-1.96-.65-2.74Z"/>
        <path class="cls-1" d="M363.41,170.38v15.23h-3.15v-1.8c-.5.63-1.15,1.12-1.95,1.48-.8.36-1.65.54-2.56.54-1.2,0-2.27-.25-3.22-.75-.95-.5-1.69-1.23-2.24-2.21-.54-.98-.81-2.16-.81-3.54v-8.95h3.12v8.48c0,1.36.34,2.41,1.02,3.14.68.73,1.61,1.09,2.79,1.09s2.11-.36,2.8-1.09c.69-.73,1.04-1.77,1.04-3.14v-8.48h3.15Z"/>
        <path class="cls-1" d="M367.36,167.78c-.39-.39-.58-.87-.58-1.44s.19-1.05.58-1.44.87-.58,1.44-.58,1.02.19,1.41.58.58.87.58,1.44-.19,1.05-.58,1.44c-.39.39-.86.58-1.41.58s-1.05-.19-1.44-.58ZM370.34,170.38v15.23h-3.15v-15.23h3.15Z"/>
        <path class="cls-1" d="M376.7,183.03h6.91v2.57h-10.56v-2.57l6.94-10.09h-6.94v-2.57h10.56v2.57l-6.91,10.09Z"/>
        <path class="cls-1" d="M394.02,173.86c.64-1.18,1.5-2.1,2.6-2.75,1.1-.65,2.32-.98,3.66-.98,1,0,1.98.22,2.94.65.97.43,1.74,1.01,2.31,1.73v-7.35h3.18v20.45h-3.18v-2.29c-.52.74-1.23,1.35-2.14,1.82s-1.96.72-3.14.72c-1.33,0-2.54-.34-3.63-1.01-1.1-.67-1.96-1.61-2.6-2.82s-.95-2.57-.95-4.1.32-2.88.95-4.06ZM404.88,175.24c-.43-.77-1-1.36-1.7-1.77-.7-.4-1.46-.61-2.27-.61s-1.57.2-2.27.59c-.7.4-1.27.98-1.7,1.74s-.65,1.67-.65,2.72.22,1.97.65,2.76c.43.79,1,1.4,1.71,1.81.71.41,1.46.62,2.25.62s1.57-.2,2.27-.61,1.27-1,1.7-1.78.65-1.7.65-2.75-.22-1.96-.65-2.74Z"/>
        <path class="cls-1" d="M426.3,170.38v15.23h-3.15v-1.8c-.5.63-1.15,1.12-1.95,1.48-.8.36-1.65.54-2.56.54-1.2,0-2.27-.25-3.22-.75-.95-.5-1.69-1.23-2.24-2.21-.54-.98-.81-2.16-.81-3.54v-8.95h3.12v8.48c0,1.36.34,2.41,1.02,3.14.68.73,1.61,1.09,2.79,1.09s2.11-.36,2.8-1.09c.69-.73,1.04-1.77,1.04-3.14v-8.48h3.15ZM415.87,167.99c-.32-.32-.48-.71-.48-1.17s.16-.85.48-1.17.71-.48,1.17-.48.85.16,1.17.48.48.71.48,1.17-.16.85-.48,1.17-.71.48-1.17.48-.85-.16-1.17-.48ZM420.63,167.99c-.32-.32-.48-.71-.48-1.17s.16-.85.48-1.17.71-.48,1.17-.48.85.16,1.17.48.48.71.48,1.17-.16.85-.48,1.17-.71.48-1.17.48-.85-.16-1.17-.48Z"/>
        <path class="cls-1" d="M440.98,170.88c.95.5,1.69,1.23,2.22,2.21.53.98.8,2.16.8,3.54v8.98h-3.12v-8.51c0-1.36-.34-2.41-1.02-3.14-.68-.73-1.61-1.09-2.79-1.09s-2.11.36-2.8,1.09c-.69.73-1.04,1.77-1.04,3.14v8.51h-3.15v-15.23h3.15v1.74c.52-.63,1.17-1.11,1.98-1.46.8-.35,1.65-.52,2.56-.52,1.2,0,2.27.25,3.22.75Z"/>
        <path class="cls-1" d="M460.72,170.38l-9.34,22.38h-3.26l3.09-7.41-6-14.98h3.51l4.28,11.61,4.45-11.61h3.26Z"/>
        <path class="cls-1" d="M462.19,173.86c.64-1.18,1.5-2.1,2.6-2.75,1.1-.65,2.31-.98,3.63-.98,1.2,0,2.24.23,3.14.7s1.61,1.05,2.14,1.75v-2.21h3.18v15.23h-3.18v-2.27c-.53.72-1.26,1.32-2.18,1.8-.92.48-1.97.72-3.15.72-1.31,0-2.5-.34-3.59-1.01-1.09-.67-1.95-1.61-2.58-2.82s-.95-2.57-.95-4.1.32-2.88.95-4.06ZM473.04,175.24c-.43-.77-1-1.36-1.7-1.77-.7-.4-1.46-.61-2.27-.61s-1.57.2-2.27.59c-.7.4-1.27.98-1.7,1.74s-.65,1.67-.65,2.72.22,1.97.65,2.76c.43.79,1,1.4,1.71,1.81.71.41,1.46.62,2.25.62s1.57-.2,2.27-.61,1.27-1,1.7-1.78.65-1.7.65-2.75-.22-1.96-.65-2.74Z"/>
        <path class="cls-1" d="M482.99,185.2c-.95-.43-1.7-1.02-2.25-1.77s-.85-1.58-.88-2.5h3.26c.06.65.36,1.18.93,1.62.56.43,1.27.65,2.11.65s1.57-.17,2.06-.51c.49-.34.73-.78.73-1.31,0-.57-.27-1-.81-1.27-.54-.28-1.41-.58-2.58-.91-1.14-.31-2.07-.62-2.79-.91-.72-.29-1.34-.75-1.87-1.35-.52-.61-.79-1.41-.79-2.4,0-.81.24-1.55.72-2.22.48-.67,1.16-1.2,2.06-1.59.89-.39,1.92-.58,3.08-.58,1.73,0,3.13.44,4.19,1.31s1.63,2.07,1.7,3.58h-3.15c-.06-.68-.33-1.22-.83-1.63s-1.17-.61-2.02-.61-1.46.16-1.91.47-.66.73-.66,1.24c0,.41.15.75.44,1.02.29.28.65.49,1.08.65.42.16,1.05.36,1.88.59,1.11.29,2.01.59,2.72.9s1.32.75,1.84,1.34c.52.59.78,1.37.8,2.35,0,.87-.24,1.64-.72,2.32-.48.68-1.16,1.22-2.03,1.6-.88.39-1.9.58-3.08.58s-2.27-.22-3.22-.65Z"/>
        <path class="cls-1" d="M498.26,170.38v15.23h-3.15v-15.23h3.15Z"/>
      </g>
    </g>
  </g>
</svg>