<?xml version="1.0" encoding="UTF-8"?>
<svg id="katman_2" data-name="katman 2" xmlns="http://www.w3.org/2000/svg" viewBox="0 0 77.84 105.79">
  <defs>
    <style>
      .cls-1 {
        fill: #000;
        stroke-width: 0px;
      }
    </style>
  </defs>
  <g id="Elements">
    <path class="cls-1" d="M63.09,7.11c-3.35,2.15-5.96,3.95-8.7,5.53-1.59.92-3.44,1.95-5.17-.86,4.96-3.87,9.54-8.07,14.97-11.12,2.25-1.26,3.85-.68,5.38,1.47.56.78.97,1.66,1.38,2.53,2.09,4.51,4.17,9.03,6.22,13.56.68,1.5,1.31,3.2-.55,4.23-1.67.92-3.2.04-4.17-1.37-1.09-1.57-1.93-3.31-2.83-5.01-.64-1.21-1.2-2.47-2.4-3.54,0,.61,0,1.23,0,1.84-.03,6.72-1.62,9.14-7.82,11.69-4.97,2.04-10.15,2.97-15.53,2.5-1.28-.11-2.56-.24-3.84-.29-5.27-.18-7.07,1.93-5.66,7.05.72,2.61,1.98,5.07,3.05,7.58,3.2,7.54,1.74,12.05-5.49,16.01-5.4,2.96-11.18,4.81-17.39,5.18-1.92.11-3.87.2-5.72.64-2.97.72-3.78,2.19-2.4,4.95,1.42,2.85,3.32,5.48,5.07,8.16,1.23,1.88,2.74,3.59,3.81,5.55,2.24,4.1,2.52,8.37-.39,12.25-2.2,2.93-4.65,5.72-7.28,8.28-1.74,1.69-4.02,2.64-7.05,1.11.84-.91,1.52-1.64,2.18-2.39,2.56-2.85,5.25-5.6,7.64-8.58,2.32-2.89,1.94-5.99-.14-8.9-1.78-2.48-3.77-4.81-5.46-7.33-1.51-2.26-3.06-4.58-4.04-7.08-2.11-5.4.41-10.07,6.08-11.38,2.64-.61,5.39-.78,8.11-.94,5.41-.31,10.39-2,15.04-4.64,3.85-2.19,4.3-3.85,2.7-7.93-1.28-3.28-2.9-6.47-3.74-9.86-.55-2.22-.41-4.81.15-7.05,1.01-4.01,3.99-6.12,8.13-6.18,2.23-.04,4.5.14,6.71.5,5.13.84,9.87-.47,14.54-2.33,2.23-.89,3.64-2.26,3.61-5.03-.03-2.65.59-5.3,1.02-8.78Z"/>
  </g>
</svg>