<?xml version="1.0" encoding="UTF-8"?>
<svg id="katman_2" data-name="katman 2" xmlns="http://www.w3.org/2000/svg" viewBox="0 0 230.04 391.53">
  <defs>
    <style>
      .cls-1 {
        fill: #000;
        stroke-width: 0px;
      }
    </style>
  </defs>
  <g id="katman_1" data-name="katman 1">
    <path class="cls-1" d="M199.85,0c11.56,3.97,18.63,13.43,26.1,22.11,5.9,6.86,5.14,18.08-.56,25.19-1.35,1.68-2.88,3.23-4.41,4.76-46.83,46.85-93.65,93.71-140.57,140.47-2.53,2.52-2.79,3.73-.1,6.41,47.29,47.11,94.47,94.33,141.66,141.55,8.4,8.4,10.57,18.45,4.78,27.27-5.38,8.2-12.45,15.23-20.67,20.63-7.65,5.03-17.03,3.79-24.16-2.07-1.08-.89-2.12-1.83-3.11-2.82-56.94-56.92-113.88-113.84-170.8-170.77-8.51-8.51-10.29-18.44-5.06-27.71,1.27-2.24,3.02-4.09,4.82-5.89C64.86,122.02,121.98,64.92,179.05,7.77c3.58-3.59,7.8-5.91,12.39-7.77h8.41Z"/>
  </g>
</svg>