<?xml version="1.0" encoding="UTF-8"?>
<svg id="katman_2" data-name="katman 2" xmlns="http://www.w3.org/2000/svg" viewBox="0 0 61.05 89.73">
  <defs>
    <style>
      .cls-1 {
        fill: #000;
        stroke-width: 0px;
      }
    </style>
  </defs>
  <g id="Elements">
    <path class="cls-1" d="M11.91,59.01c2.13-2.45,3.91-4.98,6.17-6.96,2.5-2.18,5.26-4.26,8.26-5.63,3.51-1.61,6.96-.17,8.77,2.84,1.95,3.22,1.34,6.76-1.77,9.47-4.02,3.49-8.87,5.03-14.05,5.71-1.26.17-2.54.23-3.74.34-4.26,6.94-3.31,9.63,8.28,23.56-1.92,2.3-3.91,1.36-5.82.1-6.42-4.22-10.63-14.4-9.09-21.88.16-.76.35-1.51.56-2.41-.95-.55-1.79-.99-2.58-1.51C1.22,58.9-1.37,52.84.72,46.37c1.21-3.73,3.22-7.34,5.49-10.57,3.92-5.56,9.2-9.86,14.9-13.5,6.89-4.39,14-8.45,21-12.66,1.05-.63,2.07-1.31,3.41-2.17-2.63-1.1-4.87-1.85-6.89-2.98-.77-.43-1.69-2.16-1.43-2.57.57-.89,1.86-1.33,2.89-1.88.23-.12.62.05.94.1,5.05.76,10.09,1.59,15.15,2.26,4.47.59,5.28,1.45,4.71,5.88-.66,5.08-2.97,9.45-6.08,13.42-1.01,1.28-2.25,2.42-4.27.87-.31-4.56,3.66-7.85,4.53-12.8-1.62.72-2.76,1.11-3.78,1.71-8.88,5.13-17.92,10.02-26.54,15.56-4.67,3-8.9,6.85-12.81,10.82-2.4,2.44-4.3,5.65-5.6,8.85-2.19,5.36-.16,9.51,5.58,12.3ZM18.96,58.1l.68,1.07c3.16-.19,6.11-1.16,8.81-2.88,2.5-1.59,3.35-3.22,2.25-4.45-1.56-1.76-3.3-.79-4.66.24-2.47,1.87-4.74,4-7.09,6.03Z"/>
  </g>
</svg>