<?xml version="1.0" encoding="UTF-8"?>
<svg id="katman_2" data-name="katman 2" xmlns="http://www.w3.org/2000/svg" viewBox="0 0 493.91 493.91">
  <defs>
    <style>
      .cls-1 {
        fill: #000;
      }

      .cls-1, .cls-2 {
        stroke-width: 0px;
      }

      .cls-2 {
        fill: #fff;
      }
    </style>
  </defs>
  <g id="katman_1" data-name="katman 1">
    <g>
      <circle class="cls-1" cx="246.95" cy="246.95" r="246.95"/>
      <path class="cls-2" d="M124.51,221.46c8.38.03,14.13,2.81,19.02,7.72,17.52,17.58,35.15,35.05,52.57,52.72,2.51,2.55,3.71,2.16,6-.13,49.23-49.36,98.54-98.64,147.84-147.93,8.49-8.49,18.84-10.54,28.65-5.8,2.61,1.26,4.87,3.01,6.92,5.04,3.27,3.25,6.56,6.49,9.79,9.79,10.75,10.93,10.81,24.99.05,35.83-15.29,15.4-30.67,30.7-46.02,46.05-45.85,45.86-91.73,91.69-137.53,137.6-5.12,5.13-10.81,7.4-17.92,5.2-2.68-.83-4.84-2.5-6.8-4.47-29.53-29.55-59.1-59.07-88.6-88.65-10.64-10.67-10.61-24.83-.06-35.55,3.5-3.56,7-7.11,10.6-10.56,4.69-4.51,10.29-6.91,15.48-6.85Z"/>
    </g>
  </g>
</svg>