<?xml version="1.0" encoding="UTF-8"?>
<svg id="katman_2" data-name="katman 2" xmlns="http://www.w3.org/2000/svg" viewBox="0 0 319.95 319.96">
  <defs>
    <style>
      .cls-1 {
        fill: #000;
        stroke-width: 0px;
      }
    </style>
  </defs>
  <g id="Elements">
    <path class="cls-1" d="M261.22,319.96H58.76c-.78-.69-1.76-.53-2.67-.65-8.14-1.09-15.88-3.48-22.86-7.8C11.43,298.04-.03,278.72,0,252.8c.07-61.85.02-123.7.03-185.55,0-1.98.01-3.96.14-5.93.63-9.9,2.97-19.37,8.18-27.87C21.79,11.51,41.18-.03,67.24,0c61.85.08,123.7.03,185.55.03,1.98,0,3.96.04,5.93.13,24.86,1.21,48.49,18.7,57.11,42.03,2,5.4,2.76,11.04,4.12,16.57v202.46c-.66.78-.54,1.76-.65,2.67-3.12,24.88-23.16,47.61-47.5,53.79-3.5.89-7.06,1.52-10.59,2.27ZM290.83,160.31c0-30.82,0-61.64,0-92.46,0-4.06-.15-8.1-1.22-12.07-4.25-15.76-18.47-26.59-35.82-26.62-62.57-.1-125.15-.05-187.72-.02-2.38,0-4.79.21-7.15.55-13.63,1.99-30.03,15.49-29.91,37.66.35,61.74.11,123.48.14,185.22,0,2.8.14,5.63.55,8.4,2.15,14.46,16.22,29.96,36.34,29.9,62.68-.18,125.36-.07,188.04-.06,5.27,0,10.44-.67,15.17-3.05,14.23-7.14,21.64-18.56,21.6-34.7-.07-30.92-.02-61.85-.02-92.77Z"/>
  </g>
</svg>