<?xml version="1.0" encoding="UTF-8"?>
<svg id="katman_2" data-name="katman 2" xmlns="http://www.w3.org/2000/svg" viewBox="0 0 120 83.25">
  <defs>
    <style>
      .cls-1 {
        fill: #000;
        stroke-width: 0px;
      }
    </style>
  </defs>
  <g id="Layer_1" data-name="Layer 1">
    <g>
      <rect class="cls-1" x="8.43" y="19.85" width="1.47" height=".74" transform="translate(-12.33 14.67) rotate(-51.16)"/>
      <rect class="cls-1" x="3.13" y="31.1" width="1.69" height=".84" transform="translate(-23.9 16.28) rotate(-54.14)"/>
      <rect class="cls-1" x="25.86" y="20.79" width="1.17" height=".59" transform="translate(49.62 45.71) rotate(-171.82)"/>
      <rect class="cls-1" x="56.97" y="13.97" width="1.18" height=".59" transform="translate(41.71 71.4) rotate(-88.41)"/>
      <rect class="cls-1" x="28.93" y="33.58" width="1.64" height=".82" transform="translate(73.1 21.32) rotate(114.9)"/>
      <rect class="cls-1" x="20.7" y="17.73" width="1.15" height=".57" transform="translate(38.01 40.32) rotate(-167.16)"/>
      <rect class="cls-1" x="80.58" y="23.88" width=".85" height=".42" transform="translate(24.24 86.7) rotate(-64.36)"/>
      <rect class="cls-1" x="62.86" y="8.39" width="1.59" height=".79" transform="translate(110.34 52.94) rotate(-144.46)"/>
      <rect class="cls-1" x="13.29" y="17.97" width="1.1" height=".55" transform="translate(13.9 -4.65) rotate(37.34)"/>
      <rect class="cls-1" x="5.51" y="6.2" width="1.09" height=".54" transform="translate(13.56 11.17) rotate(165.11)"/>
      <rect class="cls-1" x="12.09" y="7.24" width="1.07" height=".53" transform="translate(26.92 10.89) rotate(162.53)"/>
      <rect class="cls-1" x="70.77" y="8.95" width="1.46" height=".73" transform="translate(83.73 80.37) rotate(-107.19)"/>
      <polygon class="cls-1" points="112.84 0 113.05 .34 113.52 .06 113.48 0 112.84 0"/>
      <rect class="cls-1" x="67.43" y="3.54" width="1.48" height=".74" transform="translate(136.07 -3.28) rotate(170.67)"/>
      <rect class="cls-1" x="15.56" y="13.65" width="1.2" height=".6" transform="translate(-3.22 22.9) rotate(-65.58)"/>
      <rect class="cls-1" x="71.67" y="5.25" width="1.26" height=".63" transform="translate(33.4 66.76) rotate(-61.95)"/>
      <rect class="cls-1" x="77.96" y="61.58" width="1.53" height=".77" transform="translate(171.61 99.48) rotate(163.78)"/>
      <rect class="cls-1" x="58.86" y="10.33" width="1.19" height=".6" transform="translate(30.63 -42.45) rotate(51.36)"/>
      <rect class="cls-1" x="14.52" y="6.3" width="1.69" height=".84" transform="translate(23.34 -8.03) rotate(94.8)"/>
      <rect class="cls-1" x="9.04" y="2.9" width=".89" height=".45" transform="translate(8.8 13.09) rotate(-104.29)"/>
      <rect class="cls-1" x="9.25" y=".65" width="1.48" height=".74" transform="translate(6.59 -8.43) rotate(64.4)"/>
      <rect class="cls-1" x="10.77" y="19.48" width="1.02" height=".51" transform="translate(-11.06 15.54) rotate(-49.62)"/>
      <rect class="cls-1" x="70.06" y="31.07" width="1.63" height=".81" transform="translate(85.6 107.61) rotate(-124.88)"/>
      <rect class="cls-1" x="71.59" y="33.84" width=".95" height=".47" transform="translate(150.08 50.49) rotate(166.58)"/>
      <polygon class="cls-1" points="68.99 0 69.84 .22 69.9 0 68.99 0"/>
      <rect class="cls-1" x="21.84" y="11.41" width="1.19" height=".59" transform="translate(14.31 35.67) rotate(-98.83)"/>
      <rect class="cls-1" x="106.83" y="13.14" width="1.48" height=".74" transform="translate(84.04 -92.32) rotate(70.31)"/>
      <rect class="cls-1" x="117.76" y="14.66" width="1.09" height=".54" transform="translate(95.93 -102.19) rotate(71.99)"/>
      <rect class="cls-1" x="7.72" y="7.95" width=".69" height=".35" transform="translate(-2.86 11.53) rotate(-62.5)"/>
      <rect class="cls-1" x="112.62" y="5.72" width=".98" height=".49" transform="translate(195.01 -72.27) rotate(133.29)"/>
      <rect class="cls-1" x="54.76" y="44.27" width="1.57" height=".78" transform="translate(120.28 74.48) rotate(165.92)"/>
      <rect class="cls-1" x="3.31" y="3.75" width="1.24" height=".62" transform="translate(4.2 9.7) rotate(-138.58)"/>
      <rect class="cls-1" x="11" y="3.68" width="1.41" height=".7" transform="translate(14.31 -8.07) rotate(83.13)"/>
      <rect class="cls-1" x="26.08" y="15.14" width="1.03" height=".52" transform="translate(56.17 7.03) rotate(134.14)"/>
      <rect class="cls-1" x="32.92" y="53.33" width="1.28" height=".64" transform="translate(36.24 116.88) rotate(-150.39)"/>
      <rect class="cls-1" x="19.44" y="7.1" width="1.46" height=".73" transform="translate(8.47 25.51) rotate(-77.33)"/>
      <rect class="cls-1" x="7.83" y="35.15" width=".83" height=".42" transform="translate(-24.82 20.37) rotate(-52.48)"/>
      <rect class="cls-1" x="11.91" y="13.6" width="1.53" height=".76" transform="translate(26.33 27.01) rotate(175.82)"/>
      <rect class="cls-1" x="54.79" y="8.87" width="1.12" height=".56" transform="translate(19.1 -33.67) rotate(40.36)"/>
      <rect class="cls-1" x="59.76" y="7.27" width="1.65" height=".82" transform="translate(46.87 67.19) rotate(-84.26)"/>
      <rect class="cls-1" x="86.1" y="11" width=".81" height=".41" transform="translate(171.06 32.65) rotate(-173.15)"/>
      <rect class="cls-1" x="117.22" y="4.01" width="1.33" height=".67" transform="translate(130.08 121.68) rotate(-98.04)"/>
      <rect class="cls-1" x="45.97" y="18.09" width="1.24" height=".62" transform="translate(95.36 29.8) rotate(171.61)"/>
      <rect class="cls-1" x="113.76" y="46.01" width=".98" height=".49" transform="translate(237.35 52.63) rotate(160.92)"/>
      <rect class="cls-1" x="23.61" y="12.78" width="1.3" height=".65" transform="translate(18.24 40.01) rotate(-105.76)"/>
      <rect class="cls-1" x="95.78" y="25.4" width="1.46" height=".73" transform="translate(194.53 44.97) rotate(176.13)"/>
      <polygon class="cls-1" points="0 26.96 0 28.69 .68 27.29 0 26.96"/>
      <rect class="cls-1" x="90.61" y="6.82" width="1.28" height=".64" transform="translate(140.63 84.22) rotate(-127.11)"/>
      <rect class="cls-1" x="66.64" y="13.29" width="1.29" height=".64" transform="translate(70.25 82.19) rotate(-103.91)"/>
      <rect class="cls-1" x="5.45" y="7.43" width="1.14" height=".57" transform="translate(15.14 11.28) rotate(149.31)"/>
      <rect class="cls-1" x="93.04" y="28.38" width="1.06" height=".53" transform="translate(3.75 -10.18) rotate(6.36)"/>
      <rect class="cls-1" x="39.04" y="12.85" width="1.7" height=".85" transform="translate(22.49 51.55) rotate(-83.97)"/>
      <rect class="cls-1" x="24.68" y="48.71" width="1.29" height=".64" transform="translate(77.6 31.36) rotate(98.63)"/>
      <rect class="cls-1" x="87.02" y="4.64" width="1.19" height=".6" transform="translate(20.75 61.77) rotate(-43.59)"/>
      <rect class="cls-1" x="19.95" y="14.56" width="1.06" height=".53" transform="translate(9.36 -7.88) rotate(28.01)"/>
      <polygon class="cls-1" points="87.27 60.38 87.84 61.08 87.49 61.37 86.92 60.66 87.27 60.38"/>
      <rect class="cls-1" x="106.36" y="8.7" width="1.36" height=".68" transform="translate(101.3 116.3) rotate(-91.77)"/>
      <rect class="cls-1" x="36.14" y="65.22" width=".91" height=".45" transform="translate(-8.58 125.3) rotate(-113.75)"/>
      <rect class="cls-1" x="99.61" y="15.56" width="1.01" height=".51" transform="translate(76.64 114.41) rotate(-85.58)"/>
      <rect class="cls-1" x="64.44" y="9.25" width="1.2" height=".6" transform="translate(3.29 -13) rotate(11.71)"/>
      <rect class="cls-1" x="94.72" y="9.28" width="1.59" height=".79" transform="translate(171.75 68.03) rotate(-148.36)"/>
      <rect class="cls-1" x="43.61" y="50.75" width="1.11" height=".55" transform="translate(90.23 100.33) rotate(177.83)"/>
      <rect class="cls-1" x="77.63" y="21.16" width="1.45" height=".73" transform="translate(129.13 -41.92) rotate(113.31)"/>
      <rect class="cls-1" x="88.03" y="74.16" width="1.77" height=".89" transform="translate(203.76 91.43) rotate(148.34)"/>
      <rect class="cls-1" x="76.08" y="7.21" width=".97" height=".49" transform="translate(26.78 -51.19) rotate(44.11)"/>
      <polygon class="cls-1" points="68.14 0 68.42 1.14 69.2 .95 68.97 0 68.14 0"/>
      <rect class="cls-1" x="1.36" y="45.09" width="1.18" height=".59" transform="translate(15.3 1.97) rotate(19.56)"/>
      <rect class="cls-1" x="62.58" y="8.85" width="1.29" height=".65" transform="translate(80.55 70.67) rotate(-113.98)"/>
      <rect class="cls-1" x="21.23" y="7.31" width="1.86" height=".93" transform="translate(2.32 -4.79) rotate(13.02)"/>
      <rect class="cls-1" x="69.91" y="13.96" width="1.52" height=".76" transform="translate(37.19 78.2) rotate(-73.8)"/>
      <rect class="cls-1" x="43.99" y="28.75" width="1.69" height=".85" transform="translate(74.96 -15.02) rotate(91.22)"/>
      <rect class="cls-1" x="13.49" y="2.12" width="1.07" height=".54" transform="translate(3.12 11.52) rotate(-49.61)"/>
      <rect class="cls-1" x="5.14" y="3.7" width="1.09" height=".55" transform="translate(10.24 -1.26) rotate(96.08)"/>
      <rect class="cls-1" x="43.57" y="16.78" width=".84" height=".42" transform="translate(90.8 11.32) rotate(151.97)"/>
      <rect class="cls-1" x="74.07" y="7.23" width="1.07" height=".53" transform="translate(5.96 37.65) rotate(-29.45)"/>
      <rect class="cls-1" x="63.24" y="70.7" width="1.02" height=".51" transform="translate(-8.25 8.39) rotate(-7.07)"/>
      <rect class="cls-1" x="86.58" y="3.77" width="1.28" height=".64" transform="translate(165.71 -34.19) rotate(151.31)"/>
      <rect class="cls-1" x="22.22" y="36.92" width="1.51" height=".76" transform="translate(-20.28 44.22) rotate(-67.45)"/>
      <rect class="cls-1" x="44.58" y="6.26" width="1.42" height=".71" transform="translate(90.43 14.2) rotate(-178.76)"/>
      <rect class="cls-1" x="115.04" y="64.05" width="1.03" height=".51" transform="translate(133.75 -66.68) rotate(68.81)"/>
      <rect class="cls-1" x="12.17" y="32.96" width="1.14" height=".57" transform="translate(45.08 18.35) rotate(86.23)"/>
      <rect class="cls-1" x="108.7" y="7.38" width="1.39" height=".69" transform="translate(167.62 -85.2) rotate(118.04)"/>
      <rect class="cls-1" x="19.66" y="6.53" width="1.3" height=".65" transform="translate(14.14 27.39) rotate(-91.91)"/>
      <rect class="cls-1" x="44.68" y="3.69" width="1.52" height=".76" transform="translate(59.16 47.57) rotate(-112.62)"/>
      <rect class="cls-1" x="65.07" y="25.42" width="1.53" height=".76" transform="translate(19 -27.18) rotate(27.12)"/>
      <rect class="cls-1" x="12.23" y="46.6" width="1.73" height=".86" transform="translate(-11.77 89.05) rotate(-133.83)"/>
      <rect class="cls-1" x="95.4" y="4.8" width="1.25" height=".62" transform="translate(187.35 -25.02) rotate(158.69)"/>
      <rect class="cls-1" x="97.07" y="9.34" width=".85" height=".43" transform="translate(80.29 -86.89) rotate(74.29)"/>
      <rect class="cls-1" x="25.05" y="36.72" width="1.35" height=".68" transform="translate(-18.68 29.11) rotate(-45.09)"/>
      <rect class="cls-1" x="65.63" y="29.89" width="1.16" height=".58" transform="translate(132.75 59.63) rotate(179.37)"/>
      <rect class="cls-1" x="114.88" y="7.24" width="1.77" height=".88" transform="translate(106.75 -107.98) rotate(81.75)"/>
      <rect class="cls-1" x="118.65" y="6.4" width="1.03" height=".52" transform="translate(229.08 -39.86) rotate(153.87)"/>
      <rect class="cls-1" x="63.15" y="12.22" width="1.04" height=".52" transform="translate(105.27 -37.3) rotate(118.79)"/>
      <rect class="cls-1" x="48.07" y="21.69" width="1.1" height=".55" transform="translate(98.35 41.27) rotate(176.9)"/>
      <rect class="cls-1" x="27.29" y="44.81" width="1.09" height=".55" transform="translate(-25.03 48.62) rotate(-62.13)"/>
      <rect class="cls-1" x="103.99" y="1.27" width="1.41" height=".7" transform="translate(7.57 -37.51) rotate(21.06)"/>
      <rect class="cls-1" x="43.19" y="35.83" width="1.43" height=".72" transform="translate(13.5 -11.9) rotate(18.2)"/>
      <rect class="cls-1" x="87.08" y="6.17" width=".81" height=".41" transform="translate(53.55 87.26) rotate(-71.41)"/>
      <rect class="cls-1" x="104.52" y="5.52" width="1.41" height=".71" transform="translate(3.33 -21.02) rotate(11.59)"/>
      <rect class="cls-1" x="112.25" y="27.35" width="1.52" height=".76" transform="translate(52.46 -71.64) rotate(44.86)"/>
      <rect class="cls-1" x="77.1" y="7.42" width="1.39" height=".7" transform="translate(147.95 42.29) rotate(-159.5)"/>
      <rect class="cls-1" x="23.98" y="32.54" width="1.17" height=".59" transform="translate(52.67 2.97) rotate(80.07)"/>
      <rect class="cls-1" x="115.46" y="11.11" width="1.71" height=".86" transform="translate(232.86 20.55) rotate(178.76)"/>
      <rect class="cls-1" x="47.72" y="10.82" width="1.49" height=".75" transform="translate(97.96 16.1) rotate(172.65)"/>
      <rect class="cls-1" x="6.41" y="22.91" width=".93" height=".46" transform="translate(21.93 42.02) rotate(157.96)"/>
      <rect class="cls-1" x="116.94" y="42.87" width="1.05" height=".53" transform="translate(91.22 165.48) rotate(-98.05)"/>
      <rect class="cls-1" x="73.93" y="31.93" width="1.26" height=".63" transform="translate(21.7 93.93) rotate(-72.8)"/>
      <rect class="cls-1" x="20.85" y="67.68" width="1.46" height=".73" transform="translate(69.65 120.82) rotate(155.26)"/>
      <rect class="cls-1" x="18.69" y="4.1" width="1.26" height=".63" transform="translate(37.37 -3.77) rotate(142.74)"/>
      <rect class="cls-1" x="38.45" y="10.51" width=".91" height=".45" transform="translate(36.49 -29.55) rotate(71.13)"/>
      <rect class="cls-1" x="52.16" y="16.71" width="1.68" height=".84" transform="translate(73.82 -34.54) rotate(94.04)"/>
      <rect class="cls-1" x="42.8" y="8.49" width="1.12" height=".56" transform="translate(72.16 42.35) rotate(-142.04)"/>
      <rect class="cls-1" x="24.71" y="8.18" width="1.08" height=".54" transform="translate(7.6 -11.49) rotate(29.99)"/>
      <rect class="cls-1" x="30.39" y="1.4" width="1.31" height=".65" transform="translate(24.26 -28.62) rotate(74.2)"/>
      <rect class="cls-1" x="51.92" y="6.72" width="1.05" height=".53" transform="translate(8.65 36.67) rotate(-41.72)"/>
      <rect class="cls-1" x="93.98" y="15.18" width="1.09" height=".54" transform="translate(119.24 107.99) rotate(-114.23)"/>
      <rect class="cls-1" x="81.13" y="12.11" width="1.27" height=".63" transform="translate(163.59 24.44) rotate(179.71)"/>
      <rect class="cls-1" x="79.14" y="32.16" width="1.09" height=".55" transform="translate(123.79 -41.45) rotate(98.69)"/>
      <rect class="cls-1" x="27.52" y="16.37" width="1.34" height=".67" transform="translate(1.94 36.32) rotate(-67.42)"/>
      <rect class="cls-1" x="9.92" y="9.77" width="1.72" height=".86" transform="translate(-4.01 11.42) rotate(-48.13)"/>
      <rect class="cls-1" x="82.94" y="22.53" width="1.29" height=".64" transform="translate(122.24 -54.7) rotate(101.2)"/>
      <rect class="cls-1" x="6.26" y="9.07" width="1.93" height=".96" transform="translate(7.46 21.53) rotate(-144.07)"/>
      <rect class="cls-1" x="99.69" y="10.39" width="1.2" height=".6" transform="translate(201.11 13.79) rotate(175.67)"/>
      <polygon class="cls-1" points="2.47 0 2.58 .98 3.13 .92 3.03 0 2.47 0"/>
      <rect class="cls-1" x="54.78" y="72.71" width="1.58" height=".79" transform="translate(122.2 9.91) rotate(83.75)"/>
      <rect class="cls-1" x="76.34" y="39.73" width="1.68" height=".84" transform="translate(17.95 -23.57) rotate(19.61)"/>
      <rect class="cls-1" x="26.52" y="12.45" width="1" height=".5" transform="translate(7.78 35.52) rotate(-75.03)"/>
      <polygon class="cls-1" points="120 20.74 118.54 21.26 118.84 22.08 120 21.66 120 20.74"/>
      <rect class="cls-1" x="72.03" y="6.59" width="1.17" height=".59" transform="translate(111.1 -55.07) rotate(116.44)"/>
      <rect class="cls-1" x="88.27" y="1.61" width=".95" height=".48" transform="translate(168.46 40.91) rotate(-155.08)"/>
      <rect class="cls-1" x="31.59" y="4.68" width="1.67" height=".83" transform="translate(6.34 25.02) rotate(-46.32)"/>
      <rect class="cls-1" x="25.69" y="9.05" width="1.09" height=".55" transform="translate(14.49 34.57) rotate(-84.62)"/>
      <rect class="cls-1" x="63" y="16.74" width=".86" height=".43" transform="translate(91.03 76.51) rotate(-129.83)"/>
      <rect class="cls-1" x="40.83" y="7.81" width=".94" height=".47" transform="translate(-.28 14.51) rotate(-19.86)"/>
      <rect class="cls-1" x="109.8" y="22.81" width=".97" height=".49" transform="translate(.63 -2.82) rotate(1.47)"/>
      <rect class="cls-1" x="56.76" y="1.77" width="1.32" height=".66" transform="translate(112.94 16.91) rotate(-167.16)"/>
      <rect class="cls-1" x="8.19" y="17.13" width="1.29" height=".64" transform="translate(19.08 .8) rotate(58.45)"/>
      <polygon class="cls-1" points="0 4.26 0 4.92 0 4.92 .22 4.34 0 4.26"/>
      <rect class="cls-1" x="115.24" y="4.8" width="1.58" height=".79" transform="translate(22.31 -63.4) rotate(33.64)"/>
      <rect class="cls-1" x="6.12" y="13.47" width="1.64" height=".82" transform="translate(14.58 .37) rotate(56.05)"/>
      <rect class="cls-1" x="104.38" y="24.81" width=".92" height=".46" transform="translate(16.43 -36.62) rotate(21.46)"/>
      <rect class="cls-1" x="12.38" y="22.74" width="1.11" height=".56" transform="translate(5.23 -2.24) rotate(12.36)"/>
      <rect class="cls-1" x="35.56" y="24.51" width="1.09" height=".54" transform="translate(9.15 -9.73) rotate(17.54)"/>
      <rect class="cls-1" x="116.07" y="2.35" width="1.24" height=".62" transform="translate(232.08 -14.91) rotate(170.04)"/>
      <rect class="cls-1" x="117.7" y="12.09" width="1.71" height=".85" transform="translate(236.98 26.15) rotate(-179.46)"/>
      <rect class="cls-1" x="69.74" y="11.7" width="1.45" height=".73" transform="translate(6.39 -19.64) rotate(16.61)"/>
      <rect class="cls-1" x="33.97" y="20.99" width="1.88" height=".94" transform="translate(72.38 38.05) rotate(172.28)"/>
      <rect class="cls-1" x="84.54" y="64.8" width=".97" height=".49" transform="translate(168.75 -1.67) rotate(104.04)"/>
      <rect class="cls-1" x="117.28" y="17.16" width=".9" height=".45" transform="translate(93.76 133.96) rotate(-86.78)"/>
      <rect class="cls-1" x="30.65" y="47.37" width="1.12" height=".56" transform="translate(30.76 104.62) rotate(-146.32)"/>
      <rect class="cls-1" x="72.59" y="20.61" width="1.48" height=".74" transform="translate(37.74 -46.48) rotate(46.21)"/>
      <rect class="cls-1" x="103.85" y="79.81" width="1.8" height=".9" transform="translate(118.78 -50.95) rotate(58.64)"/>
      <rect class="cls-1" x="100.13" y="36.57" width="1.26" height=".63" transform="translate(137.27 137.78) rotate(-130)"/>
      <rect class="cls-1" x="79.3" y="4.16" width=".72" height=".36" transform="translate(78.55 84.11) rotate(-92.32)"/>
      <rect class="cls-1" x="26.38" y="53.32" width=".81" height=".4" transform="translate(86.62 52.12) rotate(115.24)"/>
      <rect class="cls-1" x="108.6" y="1.38" width="1.22" height=".61" transform="translate(201.52 -56.71) rotate(146.8)"/>
      <rect class="cls-1" x="54.18" y="1.5" width=".85" height=".43" transform="translate(7.17 -25.4) rotate(27.96)"/>
      <rect class="cls-1" x="64.3" y="43.18" width="1.23" height=".61" transform="translate(124.96 -6.51) rotate(106.4)"/>
      <rect class="cls-1" x="15.71" y="4.12" width="1.06" height=".53" transform="translate(-.57 3.83) rotate(-13.21)"/>
      <rect class="cls-1" x="13.91" y="11.81" width=".95" height=".47" transform="translate(-4.31 13.61) rotate(-44.73)"/>
      <rect class="cls-1" x="11.12" y="4.39" width="1.32" height=".66" transform="translate(15.21 -7.5) rotate(83.88)"/>
      <rect class="cls-1" x="18.39" y="1.99" width=".93" height=".46" transform="translate(36.08 10.19) rotate(-161.89)"/>
      <rect class="cls-1" x="37.47" y="33.46" width="1.88" height=".94" transform="translate(-12.84 34.29) rotate(-41.85)"/>
      <rect class="cls-1" x="71.16" y="22.3" width=".94" height=".47" transform="translate(58.99 96.56) rotate(-97.78)"/>
      <rect class="cls-1" x="3.08" y="75.32" width="2.05" height="1.03" transform="translate(-61.63 113.87) rotate(-116.96)"/>
      <rect class="cls-1" x="92.8" y="21.99" width="1.52" height=".76" transform="translate(6.92 -19.44) rotate(12.31)"/>
      <rect class="cls-1" x="96.09" y="42.12" width="1.47" height=".74" transform="translate(92.95 -63.18) rotate(64.21)"/>
      <rect class="cls-1" x="89.48" y="9.91" width="1.09" height=".55" transform="translate(107.26 -78.76) rotate(94.51)"/>
      <rect class="cls-1" x="110.18" y="3.11" width="1.48" height=".74" transform="translate(.38 13.34) rotate(-6.9)"/>
      <rect class="cls-1" x="98.32" y="34.68" width="1.86" height=".93" transform="translate(142.71 131.05) rotate(-133.87)"/>
      <rect class="cls-1" x="30.95" y="6.19" width="1.17" height=".58" transform="translate(-.27 1.48) rotate(-2.68)"/>
      <rect class="cls-1" x="77.68" y="45.48" width="1.31" height=".65" transform="translate(-7.94 73.92) rotate(-48.37)"/>
      <rect class="cls-1" x="118.18" y="1.07" width="1.29" height=".65" transform="translate(35 -82.83) rotate(44.46)"/>
      <polygon class="cls-1" points="38.44 0 39.01 .47 39.26 .15 39.07 0 38.44 0"/>
      <polygon class="cls-1" points="67.04 0 66.08 .11 66.17 .88 67.71 .71 67.63 0 67.04 0"/>
      <rect class="cls-1" x="17.77" y="9.51" width="1.94" height=".97" transform="translate(35.4 23.18) rotate(-169.72)"/>
      <rect class="cls-1" x="33.53" y="12.9" width="1.02" height=".51" transform="translate(.7 -1.68) rotate(2.86)"/>
      <rect class="cls-1" x="103" y="12.87" width="1.21" height=".61" transform="translate(189.33 72.82) rotate(-152.42)"/>
      <rect class="cls-1" x="22.14" y="4.76" width="1.54" height=".77" transform="translate(.37 -1.42) rotate(3.59)"/>
      <rect class="cls-1" x="71.59" y="5.08" width="1.18" height=".59" transform="translate(38.47 -58.68) rotate(57.98)"/>
      <rect class="cls-1" x="46.48" y="6.13" width="1.22" height=".61" transform="translate(39.89 -40.54) rotate(73.51)"/>
      <rect class="cls-1" x="89.08" y="1.14" width="1.54" height=".77" transform="translate(80.98 90.94) rotate(-85.31)"/>
      <rect class="cls-1" x="103.18" y="2.82" width="1.19" height=".59" transform="translate(164.49 87.33) rotate(-127.51)"/>
      <rect class="cls-1" x="7.66" y="47.28" width=".98" height=".49" transform="translate(48.5 73.92) rotate(132.93)"/>
      <rect class="cls-1" x="2.29" y="7.55" width="1.31" height=".66" transform="translate(-5.34 6.43) rotate(-59.59)"/>
      <rect class="cls-1" x="26.98" y=".79" width="1.81" height=".91" transform="translate(33.38 -26.12) rotate(98.81)"/>
      <rect class="cls-1" x="46.71" y="24.06" width="1.33" height=".67" transform="translate(81.33 -16.67) rotate(102.35)"/>
      <rect class="cls-1" x="96.77" y="2.21" width=".99" height=".49" transform="translate(127.83 -89.91) rotate(106.86)"/>
      <rect class="cls-1" x="92.52" y="12.87" width="1.54" height=".77" transform="translate(130.12 99.99) rotate(-121.09)"/>
      <rect class="cls-1" x="92.73" y="66.3" width=".88" height=".44" transform="translate(80.02 180.24) rotate(-118.93)"/>
      <rect class="cls-1" x="46.92" y="6.94" width="1.35" height=".67" transform="translate(30.34 -37.68) rotate(60.32)"/>
      <rect class="cls-1" x="39.45" y="2.21" width="1.22" height=".61" transform="translate(79 12.23) rotate(-169.59)"/>
      <rect class="cls-1" x="38.82" y="2.47" width="1.65" height=".82" transform="translate(75.26 20.54) rotate(-157.78)"/>
      <polygon class="cls-1" points="19.68 0 19.96 .46 20.34 .24 20.2 0 19.68 0"/>
      <rect class="cls-1" x="7.28" y="40.14" width=".89" height=".45" transform="translate(-30.66 55.04) rotate(-100.08)"/>
      <rect class="cls-1" x="34.76" y="42.99" width="1.56" height=".78" transform="translate(91.59 41.7) rotate(127.61)"/>
      <rect class="cls-1" x="46.75" y="44.94" width=".98" height=".49" transform="translate(-17.24 55.93) rotate(-53.18)"/>
      <rect class="cls-1" x="40.79" y="11.4" width="1.37" height=".68" transform="translate(78.87 33.19) rotate(-165.97)"/>
      <rect class="cls-1" x="82.45" y="27.01" width="1.67" height=".84" transform="translate(43 105.31) rotate(-80.88)"/>
      <rect class="cls-1" x="33.51" y="4.23" width="1.13" height=".56" transform="translate(18.07 -25.91) rotate(54.72)"/>
      <rect class="cls-1" x="65.21" y="7.48" width=".83" height=".41" transform="translate(55.77 73.02) rotate(-88.1)"/>
      <rect class="cls-1" x="86.07" y="7.36" width=".76" height=".38" transform="translate(171.47 24.95) rotate(-173.43)"/>
      <rect class="cls-1" x="97.3" y="13.13" width="1.05" height=".53" transform="translate(72.19 -81.96) rotate(67.16)"/>
      <rect class="cls-1" x="76.72" y="16.32" width="1.64" height=".82" transform="translate(116.71 85.72) rotate(-131.76)"/>
      <rect class="cls-1" x="109.01" y="13.04" width="1.29" height=".65" transform="translate(144.96 -91.31) rotate(101.69)"/>
      <rect class="cls-1" x="55.43" y="28.73" width=".92" height=".46" transform="translate(86.47 -26.06) rotate(91.67)"/>
      <rect class="cls-1" x="35.54" y="10.38" width="1.12" height=".56" transform="translate(61.49 -17.13) rotate(115.96)"/>
      <rect class="cls-1" x="117.47" y="4.37" width=".9" height=".45" transform="translate(66.89 111) rotate(-66.61)"/>
      <rect class="cls-1" x="102.85" y="35.42" width="1.61" height=".8" transform="translate(-5.21 49.11) rotate(-26.02)"/>
      <rect class="cls-1" x="51.94" y="23.22" width=".98" height=".49" transform="translate(94.53 62.54) rotate(-161.24)"/>
      <polygon class="cls-1" points="100.79 0 100.65 .2 101.18 .58 101.59 0 100.79 0"/>
      <rect class="cls-1" x="49.01" y="1.85" width="1.66" height=".83" transform="translate(81.64 40.7) rotate(-132.21)"/>
      <rect class="cls-1" x="39.81" y="6.28" width="1.48" height=".74" transform="translate(25.15 44.75) rotate(-77.31)"/>
      <rect class="cls-1" x="87.62" y="64.9" width="1.14" height=".57" transform="translate(40.15 163.77) rotate(-100.49)"/>
      <rect class="cls-1" x="59.67" y="1.95" width=".9" height=".45" transform="translate(110.05 35.72) rotate(-148.17)"/>
      <rect class="cls-1" x="41.69" y="66.41" width="1.83" height=".92" transform="translate(87.81 132.01) rotate(177.74)"/>
      <rect class="cls-1" x="11.57" y="7.02" width="1.44" height=".72" transform="translate(17.36 -6.03) rotate(79.77)"/>
      <rect class="cls-1" x="93.42" y="8.93" width="1.44" height=".72" transform="translate(138.28 -74.38) rotate(112.18)"/>
      <rect class="cls-1" x="102.22" y="2.72" width="1.76" height=".88" transform="translate(71.07 -94.89) rotate(70.15)"/>
      <rect class="cls-1" x=".88" y="3.41" width="1.23" height=".61" transform="translate(1.79 -.28) rotate(26.14)"/>
      <rect class="cls-1" x="80.22" y="21.34" width="1.03" height=".52" transform="translate(99.32 103.07) rotate(-117.83)"/>
      <rect class="cls-1" x="56.74" y="8.63" width="1.01" height=".5" transform="translate(29.22 59.57) rotate(-69.88)"/>
      <rect class="cls-1" x="54.4" y="4.4" width=".92" height=".46" transform="translate(.39 -3.35) rotate(3.51)"/>
      <rect class="cls-1" x="115.6" y="7.86" width="1.81" height=".91" transform="translate(231.69 27.75) rotate(-174.51)"/>
      <rect class="cls-1" x="65.88" y="40.51" width="1.75" height=".88" transform="translate(107.11 108.08) rotate(-152.54)"/>
      <rect class="cls-1" x=".7" y="30.6" width="1.66" height=".83" transform="translate(14.08 2.61) rotate(26.67)"/>
      <polygon class="cls-1" points="67.83 7.68 68.76 7.76 68.72 8.23 67.79 8.14 67.83 7.68"/>
      <rect class="cls-1" x="9.95" y="9.85" width="1.65" height=".82" transform="translate(19.04 22.63) rotate(-167.34)"/>
      <rect class="cls-1" x="92.49" y="11.46" width="1.62" height=".81" transform="translate(181.56 -20.6) rotate(152.55)"/>
      <polygon class="cls-1" points="56.38 0 55.68 .5 56.02 .97 56.96 .3 56.75 0 56.38 0"/>
      <rect class="cls-1" x="6.24" y=".41" width="1.11" height=".55" transform="translate(13.28 -1.43) rotate(156.11)"/>
      <rect class="cls-1" x="15.12" y="20.16" width="1.39" height=".7" transform="translate(33.73 1.8) rotate(81.41)"/>
      <rect class="cls-1" x="10.15" y="24.18" width=".83" height=".42" transform="translate(-13.23 12.56) rotate(-40.15)"/>
      <polygon class="cls-1" points="23.04 0 23 .4 24.14 .5 24.19 0 23.04 0"/>
      <rect class="cls-1" x="117.57" y="31.06" width="1.45" height=".73" transform="translate(58.68 -75.48) rotate(45.98)"/>
      <rect class="cls-1" x="88.21" y="56.49" width="1.04" height=".52" transform="translate(124.99 155.65) rotate(-142.74)"/>
      <rect class="cls-1" x="41.07" y="82.01" width="1.56" height=".78" transform="translate(-27.71 143.24) rotate(-104.25)"/>
      <rect class="cls-1" x="80.25" y="8.29" width="1.91" height=".95" transform="translate(63.26 88.45) rotate(-83.47)"/>
      <rect class="cls-1" x="30.9" y="16.99" width="1.04" height=".52" transform="translate(42.9 51.21) rotate(-137.47)"/>
      <polygon class="cls-1" points="89.87 0 89.68 .54 91.23 1.07 91.49 .3 90.62 0 89.87 0"/>
      <rect class="cls-1" x="17.03" y="32.42" width="1.66" height=".83" transform="translate(-1.56 64.77) rotate(-120.16)"/>
      <polygon class="cls-1" points="108.33 0 108.09 .22 108.5 .67 109.22 0 108.33 0"/>
      <rect class="cls-1" x="58.16" y="7.72" width=".96" height=".48" transform="translate(114.76 26.71) rotate(-169.26)"/>
      <rect class="cls-1" x="75.85" y="14.04" width=".9" height=".45" transform="translate(141.27 -28.22) rotate(136.24)"/>
      <rect class="cls-1" x="85.93" y="1.1" width=".82" height=".41" transform="translate(80.12 87.43) rotate(-86.73)"/>
      <rect class="cls-1" x="78.8" y="11.63" width="1.48" height=".74" transform="translate(159.98 13.15) rotate(172.25)"/>
      <rect class="cls-1" x="106.15" y="12.59" width="2.12" height="1.06" transform="translate(.15 27.4) rotate(-14.57)"/>
      <polygon class="cls-1" points="16.98 0 17.13 .44 17.71 .25 17.63 0 16.98 0"/>
      <polygon class="cls-1" points="0 3.82 .33 3.78 .15 2.24 0 2.26 0 3.82"/>
      <rect class="cls-1" x="81.7" y=".95" width="1.75" height=".88" transform="translate(2.23 20.5) rotate(-14.35)"/>
      <rect class="cls-1" x="4" y="11.73" width="1.19" height=".59" transform="translate(10.48 .58) rotate(48.13)"/>
      <rect class="cls-1" x="0" y="32.67" width=".42" height="1.15"/>
      <rect class="cls-1" x="3.84" y="67.96" width="1.05" height=".52" transform="translate(-50.54 27.5) rotate(-49.78)"/>
      <rect class="cls-1" x="18.53" y="6.73" width=".92" height=".46" transform="translate(32.36 -8.23) rotate(111.2)"/>
      <rect class="cls-1" x="114.05" y="15.29" width="1.67" height=".84" transform="translate(97.36 130.33) rotate(-89.09)"/>
      <rect class="cls-1" x="58.16" y="29.26" width="1.25" height=".62" transform="translate(90.87 87.02) rotate(-145.88)"/>
      <rect class="cls-1" x="22.24" y="13.35" width="1.43" height=".71" transform="translate(16.06 39.53) rotate(-105.89)"/>
      <rect class="cls-1" x="45.52" y="25.25" width="1.24" height=".62" transform="translate(19.98 71.36) rotate(-89.26)"/>
      <rect class="cls-1" x="55.78" y="20.99" width="1.4" height=".7" transform="translate(111.64 45.9) rotate(-176.7)"/>
      <rect class="cls-1" x="82.15" y="17.65" width="1.04" height=".52" transform="translate(34.87 -51.88) rotate(43.37)"/>
      <polygon class="cls-1" points="34.56 0 34.38 .19 35.15 .94 35.53 .56 34.96 0 34.56 0"/>
      <rect class="cls-1" x="49.85" y="11.3" width="1.26" height=".63" transform="translate(99.59 28.07) rotate(-174.44)"/>
      <rect class="cls-1" x="20.46" y="53.84" width="1.68" height=".84" transform="translate(37.87 110.14) rotate(-175.09)"/>
      <rect class="cls-1" x="106.22" y="5.74" width=".75" height=".38" transform="translate(77.36 -96.75) rotate(70.92)"/>
      <rect class="cls-1" x="108.02" y="3.1" width="1.27" height=".64" transform="translate(23.76 71.31) rotate(-40.45)"/>
      <rect class="cls-1" x="24.46" y="1.61" width="1.73" height=".87" transform="translate(35.88 25.16) rotate(-119.16)"/>
      <rect class="cls-1" x="69.25" y="36.3" width=".93" height=".47" transform="translate(141.6 68.59) rotate(176.38)"/>
      <rect class="cls-1" x="60.63" y="2.2" width="1.45" height=".73" transform="translate(.78 12.63) rotate(-11.83)"/>
      <rect class="cls-1" x="100.73" y="5.57" width="1.27" height=".63" transform="translate(7.7 -33.32) rotate(19.39)"/>
      <rect class="cls-1" x="25.3" y="39.34" width="1.8" height=".9" transform="translate(38.35 85.87) rotate(-161.4)"/>
      <rect class="cls-1" x="63.32" y="5.79" width="1.2" height=".6" transform="translate(3.84 28.75) rotate(-26.11)"/>
      <rect class="cls-1" x="60.43" y="3.87" width="1.53" height=".76" transform="translate(18.11 47.92) rotate(-49.35)"/>
      <rect class="cls-1" x="113.56" y="11.33" width="1.43" height=".71" transform="translate(98.29 125.44) rotate(-87.84)"/>
      <rect class="cls-1" x="92.33" y="8.31" width=".85" height=".43" transform="translate(16.89 62.56) rotate(-40.71)"/>
      <rect class="cls-1" x="73.94" y="4.87" width="1.32" height=".66" transform="translate(103.51 74.16) rotate(-116.74)"/>
      <rect class="cls-1" x="31.13" y="43.9" width="1.34" height=".67" transform="translate(10.24 -5.8) rotate(12.4)"/>
      <rect class="cls-1" x="114.18" y="18.28" width="1.67" height=".83" transform="translate(204.3 -56.18) rotate(130.78)"/>
      <rect class="cls-1" x="84.48" y="2.77" width="1.49" height=".74" transform="translate(59.96 -78.31) rotate(70.66)"/>
      <rect class="cls-1" x="46.51" y="2.58" width="1.01" height=".51" transform="translate(42.87 49.75) rotate(-88.4)"/>
      <rect class="cls-1" x="38.12" y="14.58" width="1.56" height=".78" transform="translate(61.56 49.94) rotate(-144)"/>
      <rect class="cls-1" x="53.32" y="5.36" width="1.69" height=".85" transform="translate(9.75 -25.75) rotate(29.28)"/>
      <rect class="cls-1" x="107.76" y="7.29" width="1.46" height=".73" transform="translate(25.47 -62.61) rotate(36.21)"/>
      <rect class="cls-1" x="110.85" y="33.82" width="1.02" height=".51" transform="translate(133.88 -80.19) rotate(84.13)"/>
      <rect class="cls-1" x="97.62" y="18.08" width="1.47" height=".74" transform="translate(3.87 51.43) rotate(-29.86)"/>
      <rect class="cls-1" x=".13" y="2.15" width="1.36" height=".68" transform="translate(-1.77 2.02) rotate(-61.62)"/>
      <rect class="cls-1" x="99.38" y="9.05" width="1.44" height=".72" transform="translate(15.46 63.67) rotate(-38.03)"/>
      <rect class="cls-1" x="110.77" y="8.09" width="1.6" height=".8" transform="translate(7.64 -32.97) rotate(17.4)"/>
      <rect class="cls-1" x="113.75" y="1.71" width="1.24" height=".62" transform="translate(200.45 77.34) rotate(-139.83)"/>
      <rect class="cls-1" x="36.63" y=".61" width=".89" height=".45" transform="translate(4.67 18.87) rotate(-30.39)"/>
      <rect class="cls-1" x="6.46" y="43.73" width="1.35" height=".67" transform="translate(-22.16 10.39) rotate(-31.82)"/>
      <rect class="cls-1" x="56.39" y="67.5" width="1.59" height=".79" transform="translate(-25.73 99.61) rotate(-70.83)"/>
      <rect class="cls-1" x="82.16" y="5.23" width="1.21" height=".6" transform="translate(34.59 -61.99) rotate(50.67)"/>
      <polygon class="cls-1" points="0 42.04 .67 41.78 .44 41.19 0 41.36 0 42.04"/>
      <rect class="cls-1" x="66.4" y="10.7" width="1.06" height=".53" transform="translate(132.75 27.28) rotate(-175.38)"/>
      <polygon class="cls-1" points="79.79 68.86 80.21 67.99 80.64 68.2 80.22 69.07 79.79 68.86"/>
      <rect class="cls-1" x="14.05" y="5.27" width="1" height=".5" transform="translate(28.37 -1.62) rotate(131.93)"/>
      <rect class="cls-1" x="22.41" y="3.88" width=".86" height=".43" transform="translate(25.56 -18.95) rotate(86.59)"/>
      <rect class="cls-1" x="5.38" y="27.98" width="1.35" height=".68" transform="translate(18.99 2.41) rotate(38.61)"/>
      <rect class="cls-1" x="19" y="78.68" width="1.39" height=".7" transform="translate(37.99 -.34) rotate(26.97)"/>
      <rect class="cls-1" x="90.87" y="2.48" width="1.77" height=".88" transform="translate(177.84 34.83) rotate(-161.48)"/>
      <rect class="cls-1" x="89.48" y="2.88" width="1.06" height=".53" transform="translate(176.63 27.82) rotate(-166.1)"/>
      <rect class="cls-1" x="78.8" y="8.03" width="1.36" height=".68" transform="translate(30.5 71.52) rotate(-58.21)"/>
      <rect class="cls-1" x="71.15" y=".49" width="1.18" height=".59" transform="translate(137.96 28.41) rotate(-157.99)"/>
      <rect class="cls-1" x="8.29" y="59.05" width="1.16" height=".58" transform="translate(67.5 72.04) rotate(110.73)"/>
      <rect class="cls-1" x="41.96" y="6.62" width=".86" height=".43" transform="translate(76.17 -19.67) rotate(132.74)"/>
      <rect class="cls-1" x="106.69" y="29.56" width=".93" height=".46" transform="translate(30.95 -51.22) rotate(31.21)"/>
      <rect class="cls-1" x="64.93" y="20.18" width=".85" height=".43" transform="translate(-2.95 15.83) rotate(-13.51)"/>
      <rect class="cls-1" x="17.77" y="2.62" width="1.21" height=".61" transform="translate(17.96 -15.68) rotate(79.68)"/>
      <rect class="cls-1" x="37.94" y="75.43" width="1.63" height=".82" transform="translate(23.59 -7.97) rotate(16.81)"/>
      <rect class="cls-1" x="42.2" y="10.34" width="1.13" height=".56" transform="translate(23.15 -28.84) rotate(49.63)"/>
      <rect class="cls-1" x="14.97" y=".66" width="1.26" height=".63" transform="translate(24.8 -11.65) rotate(122.49)"/>
      <rect class="cls-1" x="94.17" y="52.75" width=".94" height=".47" transform="translate(28.17 138.69) rotate(-81.45)"/>
      <rect class="cls-1" x="88.7" y="52.46" width="1" height=".5" transform="translate(158.93 -23.93) rotate(101.71)"/>
      <rect class="cls-1" x="40.31" y="4.99" width="1.92" height=".96" transform="translate(42.05 47.09) rotate(-98.62)"/>
      <rect class="cls-1" x="64.94" y="18.39" width="1.41" height=".7" transform="translate(89.5 82.71) rotate(-126.38)"/>
      <rect class="cls-1" x="105.46" y="37.45" width=".98" height=".49" transform="translate(91.09 149.16) rotate(-101.99)"/>
      <rect class="cls-1" x="61.77" y="14.53" width="1.62" height=".81" transform="translate(25.39 67.44) rotate(-68.11)"/>
      <rect class="cls-1" x="35.41" y="8.62" width="1.2" height=".6" transform="translate(39.71 -28) rotate(81.81)"/>
      <rect class="cls-1" x="21.62" y="1.06" width="1.09" height=".54" transform="translate(34.98 19.47) rotate(-128.7)"/>
      <rect class="cls-1" x="108.99" y="16.41" width="1.27" height=".64" transform="translate(31.79 -62.26) rotate(36.75)"/>
      <rect class="cls-1" x="92.15" y="38.93" width="1.03" height=".52" transform="translate(39.73 -46.37) rotate(35.33)"/>
      <rect class="cls-1" x="14.2" y="28.89" width="1.3" height=".65" transform="translate(46.73 21.65) rotate(103.6)"/>
      <rect class="cls-1" x="93.32" y="6.34" width="1.5" height=".75" transform="translate(178.11 -36.09) rotate(148.92)"/>
      <rect class="cls-1" x="19.97" y="5.01" width="1.51" height=".76" transform="translate(10.24 -13.28) rotate(46.12)"/>
      <rect class="cls-1" x="89.44" y="30.42" width="1.23" height=".62" transform="translate(184.09 16.16) rotate(152.36)"/>
      <rect class="cls-1" x="113.7" y="24.58" width="1.14" height=".57" transform="translate(2.24 58.4) rotate(-28.94)"/>
      <rect class="cls-1" x="27.18" y="26.77" width="1.49" height=".75" transform="translate(13.97 -9.22) rotate(24.82)"/>
      <rect class="cls-1" x="8.17" y="21.71" width=".92" height=".46" transform="translate(27.63 7.98) rotate(75.15)"/>
      <rect class="cls-1" x="4.71" y="8.9" width="1.35" height=".68" transform="translate(-4.81 6.01) rotate(-42.19)"/>
      <rect class="cls-1" x="88.68" y="3.44" width="1.24" height=".62" transform="translate(91.06 93.11) rotate(-93.54)"/>
      <rect class="cls-1" x="83.08" y="7.8" width="1.07" height=".53" transform="translate(167.59 10.1) rotate(175.88)"/>
      <rect class="cls-1" x="107.52" y="15.2" width=".96" height=".48" transform="translate(28.34 89.98) rotate(-51.23)"/>
      <rect class="cls-1" x=".18" y="13.49" width="1.35" height=".67" transform="translate(-12.72 16.59) rotate(-97.97)"/>
      <rect class="cls-1" x="98.21" y="58.13" width=".9" height=".45" transform="translate(57.62 -48.67) rotate(38.42)"/>
      <rect class="cls-1" x="96.76" y="20.1" width="1.73" height=".86" transform="translate(8.04 -23.36) rotate(14.22)"/>
      <rect class="cls-1" x="96.72" y="46.6" width="1.12" height=".56" transform="translate(33.25 -40.08) rotate(27.91)"/>
      <rect class="cls-1" x="38.48" y="7.88" width=".96" height=".48" transform="translate(45.95 -31.06) rotate(88.35)"/>
      <rect class="cls-1" x="67.84" y="29.38" width="1.27" height=".64" transform="translate(80.03 -44.04) rotate(75.46)"/>
      <rect class="cls-1" x="40.06" y="20.15" width="1.26" height=".63" transform="translate(79.21 -3.85) rotate(121.03)"/>
      <polygon class="cls-1" points="45.05 0 45.03 .02 45.58 .41 45.88 0 45.05 0"/>
      <rect class="cls-1" x="77.66" y="10.68" width="1.19" height=".59" transform="translate(53.97 -64.22) rotate(64.12)"/>
      <rect class="cls-1" x="21.07" y="59.34" width="1.16" height=".58" transform="translate(-35.31 87.55) rotate(-96.17)"/>
      <rect class="cls-1" x="41.23" y="11.94" width="2.12" height="1.06" transform="translate(54.39 54.86) rotate(-122.35)"/>
      <rect class="cls-1" x="100.04" y="49.36" width="1.65" height=".83" transform="translate(149.83 151.04) rotate(-142.07)"/>
      <rect class="cls-1" x="19.93" y="12.85" width="1.09" height=".55" transform="translate(9.44 34.8) rotate(-95.67)"/>
      <rect class="cls-1" x="12.5" y="8.89" width="1.67" height=".83" transform="translate(29.21 12.81) rotate(157.54)"/>
      <rect class="cls-1" x="66.35" y="65.95" width="1.73" height=".87" transform="translate(142.7 9.58) rotate(98.39)"/>
      <rect class="cls-1" x="10.88" y="8.74" width="1.13" height=".56" transform="translate(1.78 -1.88) rotate(10.2)"/>
      <rect class="cls-1" x="106.02" y="27.2" width="1.1" height=".55" transform="translate(7.91 76.23) rotate(-40.76)"/>
      <rect class="cls-1" x="2.63" y="63.27" width=".96" height=".48" transform="translate(53.92 25.29) rotate(55.86)"/>
      <rect class="cls-1" x="95.09" y="4.67" width="1.27" height=".63" transform="translate(2.44 27.05) rotate(-16.29)"/>
      <rect class="cls-1" x="83.56" y="9.15" width="1.51" height=".76" transform="translate(168.48 -1.2) rotate(166.3)"/>
      <rect class="cls-1" x="10.01" y="3.78" width="1.22" height=".61" transform="translate(21.27 .08) rotate(138.34)"/>
      <rect class="cls-1" x="106.04" y="9.24" width="1.22" height=".61" transform="translate(17.38 -49.59) rotate(28.41)"/>
      <rect class="cls-1" x="16.09" y="12" width=".98" height=".49" transform="translate(36.24 6.09) rotate(126.17)"/>
      <rect class="cls-1" x="66.7" y="22.45" width="1.21" height=".61" transform="translate(51.6 92.05) rotate(-95.91)"/>
      <rect class="cls-1" x="117.37" y="9.57" width="1.15" height=".57" transform="translate(215.78 -56.75) rotate(140.97)"/>
      <rect class="cls-1" x="31.87" y="23.83" width="1.14" height=".57" transform="translate(17.23 61.56) rotate(-104.53)"/>
      <rect class="cls-1" x="99.24" y="2.08" width=".95" height=".47" transform="translate(181.14 59.91) rotate(-146.06)"/>
      <rect class="cls-1" x="57.9" y="1.26" width="1.55" height=".77" transform="translate(116.73 -6.99) rotate(169.93)"/>
      <rect class="cls-1" x="81.48" y="10.65" width=".91" height=".45" transform="translate(15.33 -38.07) rotate(28.75)"/>
      <rect class="cls-1" x="86.25" y="48.14" width=".85" height=".43" transform="translate(-7.8 78.77) rotate(-47)"/>
      <rect class="cls-1" x="11.98" y="25.78" width="1.11" height=".56" transform="translate(41.04 30.99) rotate(125.5)"/>
      <rect class="cls-1" x="117.74" y="27.16" width="1.61" height=".81" transform="translate(141.66 -91.94) rotate(87.85)"/>
      <rect class="cls-1" x="32.61" y="7.4" width="1.32" height=".66" transform="translate(50.85 37.01) rotate(-134.07)"/>
      <rect class="cls-1" x="42.7" y="4.48" width="1.56" height=".78" transform="translate(49.21 48.25) rotate(-103.91)"/>
      <rect class="cls-1" x="65.7" y="15.02" width="1.28" height=".64" transform="translate(112.81 -34.43) rotate(120.02)"/>
      <polygon class="cls-1" points="109.59 0 110.08 1.33 110.9 1.03 110.52 0 109.59 0"/>
      <rect class="cls-1" x="23.93" y="3.25" width="1.59" height=".79" transform="translate(26.23 28.59) rotate(-101.82)"/>
      <rect class="cls-1" x="26.71" y="3.9" width="1.13" height=".56" transform="translate(-.31 3.64) rotate(-7.6)"/>
      <rect class="cls-1" x="20.3" y="9.35" width="1.62" height=".81" transform="translate(15.51 -12.81) rotate(51.27)"/>
      <rect class="cls-1" x="63.21" y="46" width="1.77" height=".89" transform="translate(142.6 56.55) rotate(151.4)"/>
      <rect class="cls-1" x="28.29" y="40.29" width="1.19" height=".59" transform="translate(-20.92 39.49) rotate(-53.3)"/>
      <rect class="cls-1" x="61.43" y="39.9" width="1.32" height=".66" transform="translate(73 113.41) rotate(-131.42)"/>
      <polygon class="cls-1" points="66.4 0 66.95 .13 66.98 0 66.4 0"/>
      <rect class="cls-1" x="59.97" y="24.25" width=".95" height=".48" transform="translate(3.99 -8.16) rotate(7.99)"/>
      <rect class="cls-1" x="34.74" y="27.31" width="1.06" height=".53" transform="translate(52.44 68.93) rotate(-150.56)"/>
      <rect class="cls-1" x="110.44" y="17.23" width="1.17" height=".58" transform="translate(-1.37 17.42) rotate(-8.92)"/>
      <polygon class="cls-1" points="48.65 0 48.88 .13 48.96 0 48.65 0"/>
      <rect class="cls-1" x="101.16" y="44.37" width="1.17" height=".59" transform="translate(64.04 149.19) rotate(-93.86)"/>
      <rect class="cls-1" x="40.42" y="5.27" width=".94" height=".47" transform="translate(51.99 -34.23) rotate(97.93)"/>
      <rect class="cls-1" x="49.97" y="40.14" width=".95" height=".48" transform="translate(55.69 -24.02) rotate(55.98)"/>
      <rect class="cls-1" x="50.95" y="5.43" width="1.04" height=".52" transform="translate(59.9 -45.41) rotate(93.07)"/>
      <rect class="cls-1" x="71.98" y="36.92" width="1.62" height=".81" transform="translate(19.94 99.76) rotate(-76.9)"/>
      <rect class="cls-1" x="108.47" y="10.33" width="1.23" height=".62" transform="translate(175.75 -76.37) rotate(121.89)"/>
      <rect class="cls-1" x="21.01" y="39.64" width="1.21" height=".6" transform="translate(64.57 54.7) rotate(137.39)"/>
      <rect class="cls-1" x="63.55" y="1.61" width=".94" height=".47" transform="translate(62.6 -62.18) rotate(87.07)"/>
      <rect class="cls-1" x="57.64" y="3.82" width=".85" height=".43" transform="translate(19.47 47.6) rotate(-52.44)"/>
      <rect class="cls-1" x="96.27" y="2.9" width="1.69" height=".84" transform="translate(-.04 4.96) rotate(-2.92)"/>
      <rect class="cls-1" x="33.13" y="29.42" width="1.61" height=".8" transform="translate(31.74 74.94) rotate(-128.52)"/>
      <rect class="cls-1" x="64.02" y="11.23" width=".78" height=".39" transform="translate(103.79 63.66) rotate(-137.07)"/>
      <rect class="cls-1" x="91.82" y="4.62" width="1.13" height=".57" transform="translate(58.91 91.14) rotate(-71.82)"/>
      <rect class="cls-1" x="23.07" y="9.26" width="1.3" height=".65" transform="translate(46.47 -2.08) rotate(130.86)"/>
      <rect class="cls-1" x="111.69" y="50.35" width="1.03" height=".52" transform="translate(177.35 155.05) rotate(-146.23)"/>
      <rect class="cls-1" x="15.51" y="17.27" width="1.6" height=".8" transform="translate(-6.31 9.51) rotate(-27.45)"/>
      <rect class="cls-1" x="17.67" y="19.1" width="1.49" height=".74" transform="translate(7.23 -4.88) rotate(18.74)"/>
      <rect class="cls-1" x="39.64" y="9.33" width="1.14" height=".57" transform="translate(69.1 39.19) rotate(-147.8)"/>
      <rect class="cls-1" x="75.23" y="16.43" width=".93" height=".46" transform="translate(1.46 -5.62) rotate(4.29)"/>
      <rect class="cls-1" x="51.47" y="2.53" width="1.11" height=".55" transform="translate(52.65 54.9) rotate(-93.78)"/>
      <rect class="cls-1" x="63.92" y="23.34" width="1.16" height=".58" transform="translate(76.7 91.22) rotate(-120.35)"/>
      <rect class="cls-1" x="41.12" y="3.34" width="1.04" height=".52" transform="translate(22.38 40.69) rotate(-67.5)"/>
      <rect class="cls-1" x="42.14" y="21.53" width=".9" height=".45" transform="translate(12.84 59.2) rotate(-78.59)"/>
      <rect class="cls-1" x="23.36" y="2.67" width="1.29" height=".65" transform="translate(46.37 -6.22) rotate(150.49)"/>
      <rect class="cls-1" x="114.01" y="7.22" width="1.07" height=".53" transform="translate(156.71 -99.27) rotate(107.82)"/>
      <rect class="cls-1" x="34.78" y="32.77" width="1.11" height=".56" transform="translate(54.13 -11.53) rotate(69.77)"/>
      <rect class="cls-1" x="37.6" y="28.68" width="1.68" height=".84" transform="translate(79.8 4.33) rotate(111.96)"/>
      <rect class="cls-1" x=".81" y="18.66" width="1.23" height=".61" transform="translate(-17.21 15.14) rotate(-74.09)"/>
      <rect class="cls-1" x="81.04" y="5.49" width="1.78" height=".89" transform="translate(31.02 70.4) rotate(-55.84)"/>
      <rect class="cls-1" x="118.77" y="1.89" width="1.03" height=".52" transform="translate(207.12 -78.6) rotate(136.38)"/>
      <polygon class="cls-1" points="80.36 0 80.57 .27 80.93 0 80.36 0"/>
      <rect class="cls-1" x="74.4" y="9.17" width="1.35" height=".68" transform="translate(116.8 72.65) rotate(-130.67)"/>
      <rect class="cls-1" x="89.36" y="9.78" width=".79" height=".39" transform="translate(17.4 -44.06) rotate(30.41)"/>
      <rect class="cls-1" x="7.11" y="3.86" width="1.22" height=".61" transform="translate(.37 -.63) rotate(4.79)"/>
      <rect class="cls-1" x="57.66" y="50.57" width="1.29" height=".65" transform="translate(78.69 -23.76) rotate(64.15)"/>
      <rect class="cls-1" x="88.15" y="45.03" width=".93" height=".47" transform="translate(88.37 144.77) rotate(-116.92)"/>
      <rect class="cls-1" x="92.26" y="4.09" width="1.49" height=".75" transform="translate(185.58 14.38) rotate(-176.63)"/>
      <rect class="cls-1" x="48.57" y="11.49" width="1.15" height=".58" transform="translate(99.33 17.72) rotate(173.27)"/>
      <rect class="cls-1" x="42.41" y="58.88" width="1.09" height=".55" transform="translate(88.17 1.71) rotate(74.2)"/>
      <rect class="cls-1" x="33.74" y="12.37" width="1.5" height=".75" transform="translate(12.51 -16.73) rotate(33)"/>
      <rect class="cls-1" x="37.31" y="60.2" width="1.08" height=".54" transform="translate(109.17 59.05) rotate(120.9)"/>
      <rect class="cls-1" x="17.1" y="11.62" width="1.49" height=".75" transform="translate(.68 -.96) rotate(3.13)"/>
      <rect class="cls-1" x="116.9" y="9.78" width="1.36" height=".68" transform="translate(15.59 69.49) rotate(-35.12)"/>
      <rect class="cls-1" x="80.46" y="13.88" width="1.67" height=".84" transform="translate(2.15 -9.15) rotate(6.53)"/>
      <rect class="cls-1" x="44.34" y="55.76" width="1.43" height=".72" transform="translate(116.95 59.34) rotate(131.33)"/>
      <polygon class="cls-1" points="2.31 0 2.29 .38 2.91 .41 2.92 0 2.31 0"/>
      <rect class="cls-1" x="23.54" y="6.24" width="1.27" height=".64" transform="translate(27.63 31.37) rotate(-113.09)"/>
      <rect class="cls-1" x="55.66" y="25.76" width="1.58" height=".79" transform="translate(105.72 -11.83) rotate(117.5)"/>
      <rect class="cls-1" x="43.57" y="3.75" width="1" height=".5" transform="translate(56.84 -38.37) rotate(101.59)"/>
      <rect class="cls-1" x="14.37" y="52.45" width="1.79" height=".9" transform="translate(68.69 66.21) rotate(120.09)"/>
      <rect class="cls-1" x="50.6" y="3.42" width="1.06" height=".53" transform="translate(78.48 47.05) rotate(-126.36)"/>
      <rect class="cls-1" x="108.33" y="4.38" width="1.29" height=".64" transform="translate(15.4 60.74) rotate(-33.39)"/>
      <rect class="cls-1" x=".89" y="5.08" width="1.51" height=".76" transform="translate(-2.97 2.12) rotate(-37.33)"/>
      <rect class="cls-1" x="23.63" y=".66" width="1.66" height=".83" transform="translate(48.57 -3.21) rotate(167.39)"/>
      <rect class="cls-1" x="53.35" y="12.19" width="1.63" height=".81" transform="translate(-1.42 14.37) rotate(-14.92)"/>
      <rect class="cls-1" x="32.81" y="40.21" width="1.34" height=".67" transform="translate(44.61 91.94) rotate(-152.68)"/>
      <rect class="cls-1" x="38.19" y="30.8" width="1.85" height=".92" transform="translate(-9.66 42.6) rotate(-51.72)"/>
      <rect class="cls-1" x="28.94" y="4.33" width="1.35" height=".67" transform="translate(59.49 2.18) rotate(166.29)"/>
      <rect class="cls-1" x="68.33" y="25.22" width=".81" height=".41" transform="translate(88.56 95.98) rotate(-126)"/>
      <rect class="cls-1" x="48.69" y="5.53" width="1.1" height=".55" transform="translate(98.36 12.57) rotate(-178.88)"/>
      <rect class="cls-1" x="113.65" y="13.84" width="1.08" height=".54" transform="translate(154.47 -93.68) rotate(103.44)"/>
      <rect class="cls-1" x="58.68" y="22.33" width="1.27" height=".63" transform="translate(-1.66 40.34) rotate(-37.08)"/>
      <rect class="cls-1" x="66.73" y="8.15" width="1.03" height=".52" transform="translate(85.96 73.55) rotate(-113.16)"/>
      <rect class="cls-1" x="71.34" y="16.52" width="1.24" height=".62" transform="translate(117.93 74.7) rotate(-141.63)"/>
      <rect class="cls-1" x="92.16" y="34.17" width="1.44" height=".72" transform="translate(-6.16 31.47) rotate(-18.63)"/>
      <rect class="cls-1" x="100.17" y="19.82" width="1.47" height=".73" transform="translate(-1.85 25.8) rotate(-14.44)"/>
      <rect class="cls-1" x="46.35" y="30.31" width="1.21" height=".61" transform="translate(81.95 -13.17) rotate(95.53)"/>
      <rect class="cls-1" x="3.69" y="56.51" width="1.23" height=".62" transform="translate(49.68 22.36) rotate(57.12)"/>
      <rect class="cls-1" x="3.29" y="5.41" width="1.4" height=".7" transform="translate(5.18 12.66) rotate(-154.92)"/>
      <rect class="cls-1" x="86.51" y="9.85" width="1.17" height=".58" transform="translate(65.77 -74.91) rotate(69.28)"/>
      <rect class="cls-1" x="11.81" y="10.84" width="1.45" height=".72" transform="translate(-.87 1.05) rotate(-4.64)"/>
      <rect class="cls-1" x="88.49" y="5.05" width="1.62" height=".81" transform="translate(1.49 -11.67) rotate(7.54)"/>
      <rect class="cls-1" x="8.06" y="1.75" width="1.09" height=".54" transform="translate(16.83 -1.21) rotate(145.32)"/>
      <rect class="cls-1" x="2.78" y="21.52" width=".95" height=".47" transform="translate(-17.75 28.32) rotate(-98.85)"/>
      <polygon class="cls-1" points="74.55 0 74.82 .2 74.97 0 74.55 0"/>
      <rect class="cls-1" x="80.57" y="7.65" width="1.9" height=".95" transform="translate(162.66 -3.15) rotate(166.39)"/>
      <rect class="cls-1" x="7.56" y="54.22" width=".93" height=".47" transform="translate(40.3 9.86) rotate(44.28)"/>
      <rect class="cls-1" x="79.9" y="30.06" width="1.12" height=".56" transform="translate(143.8 88.51) rotate(-158.09)"/>
      <rect class="cls-1" x="60.25" y="2.44" width="1.06" height=".53" transform="translate(83.59 59.11) rotate(-114.56)"/>
      <rect class="cls-1" x="96.03" y="1.52" width="1.08" height=".54" transform="translate(29.37 71.17) rotate(-46.97)"/>
      <rect class="cls-1" x="114.11" y="8.87" width="1.7" height=".85" transform="translate(222.83 50.1) rotate(-163.9)"/>
      <rect class="cls-1" x="30.3" y="8.24" width="1.48" height=".74" transform="translate(3.94 26.03) rotate(-48.24)"/>
      <rect class="cls-1" x="57.79" y="20.27" width="1.24" height=".62" transform="translate(21.51 70.32) rotate(-72.83)"/>
      <rect class="cls-1" x="55.45" y="1.92" width="1.66" height=".83" transform="translate(101.48 35.94) rotate(-145.75)"/>
      <rect class="cls-1" x="112.58" y="4.74" width="1.72" height=".86" transform="translate(78.76 113.3) rotate(-74.83)"/>
      <rect class="cls-1" x="28.2" y="7.04" width="1.34" height=".67" transform="translate(2.62 21.47) rotate(-42.56)"/>
      <rect class="cls-1" x="30.88" y="58.94" width="1.39" height=".7" transform="translate(64.91 .97) rotate(57.79)"/>
      <polygon class="cls-1" points="120 8.88 119.88 8.85 119.75 9.49 120 9.54 120 8.88"/>
      <rect class="cls-1" x="88.67" y="7.02" width="1" height=".5" transform="translate(176.91 24.78) rotate(-173.38)"/>
      <rect class="cls-1" x=".44" y="25" width="1.15" height=".57" transform="translate(-11.14 3.09) rotate(-26.41)"/>
      <rect class="cls-1" x="113.16" y="2.38" width="1.29" height=".64" transform="translate(225.92 -16.95) rotate(168.7)"/>
      <rect class="cls-1" x="31.62" y="4.15" width="1.11" height=".56" transform="translate(6.16 23.87) rotate(-44.61)"/>
      <rect class="cls-1" x="68.75" y="7.7" width="1.7" height=".85" transform="translate(101.69 -54.16) rotate(110.6)"/>
      <rect class="cls-1" x="28.88" y="36.36" width="1.01" height=".51" transform="translate(18.93 -9.15) rotate(25.89)"/>
      <rect class="cls-1" x="55.94" y="39.98" width="1.32" height=".66" transform="translate(-12.84 42.93) rotate(-37.61)"/>
      <rect class="cls-1" x="33.35" y="7.28" width="1.15" height=".58" transform="translate(52.11 37.18) rotate(-134.12)"/>
      <rect class="cls-1" x="110.77" y="75.52" width="1.38" height=".69" transform="translate(16.42 -19.77) rotate(10.94)"/>
      <rect class="cls-1" x="84.45" y="31.7" width="1.29" height=".65" transform="translate(148.38 97.31) rotate(-154.73)"/>
      <rect class="cls-1" x="98" y=".95" width="1.01" height=".5" transform="translate(119.97 -94.93) rotate(101.89)"/>
      <polygon class="cls-1" points="108.5 0 108.5 .02 109.62 .13 109.63 0 108.5 0"/>
      <rect class="cls-1" x="18.3" y="62.86" width="1.07" height=".53" transform="translate(71.97 102.08) rotate(142.85)"/>
      <rect class="cls-1" x="93.73" y="7.51" width=".82" height=".41" transform="translate(187.04 24.75) rotate(-174.29)"/>
      <rect class="cls-1" x="85.93" y="23.88" width="1.25" height=".62" transform="translate(145.68 -43.49) rotate(115.52)"/>
      <rect class="cls-1" x="92.28" y="13.67" width=".96" height=".48" transform="translate(182.87 -12.11) rotate(155.36)"/>
      <rect class="cls-1" x="87.93" y="8.93" width="1.7" height=".85" transform="translate(168.52 49.48) rotate(-159.31)"/>
      <rect class="cls-1" x="61.13" y="9.01" width=".94" height=".47" transform="translate(88.24 65.56) rotate(-123.86)"/>
      <polygon class="cls-1" points="97.21 0 97.65 .1 97.67 0 97.21 0"/>
      <rect class="cls-1" x="45.79" y="10.18" width="1.17" height=".58" transform="translate(28.89 54.67) rotate(-81.15)"/>
      <rect class="cls-1" x="37.77" y="23.73" width="1.63" height=".81" transform="translate(28.2 -20.17) rotate(44.78)"/>
      <rect class="cls-1" x="85.27" y="7.58" width=".93" height=".47" transform="translate(68.81 92.23) rotate(-83.87)"/>
      <rect class="cls-1" x="72.19" y="2.3" width="1.4" height=".7" transform="translate(1.72 18.62) rotate(-14.73)"/>
      <rect class="cls-1" x="103.07" y="21.72" width="1.4" height=".7" transform="translate(13.55 -33.75) rotate(19.74)"/>
      <rect class="cls-1" x="32.46" y="15.1" width="1.25" height=".62" transform="translate(10.96 -13.62) rotate(27.71)"/>
      <rect class="cls-1" x="61.4" y="20.46" width="1.18" height=".59" transform="translate(38.17 -40.12) rotate(50.12)"/>
      <rect class="cls-1" x="30.01" y="20.99" width=".93" height=".47" transform="translate(13.1 -11.6) rotate(27.25)"/>
      <rect class="cls-1" x="40.88" y="36.42" width=".97" height=".48" transform="translate(8.42 81.05) rotate(-94.98)"/>
      <rect class="cls-1" x="4.72" y="13.61" width="1.16" height=".58" transform="translate(-1.95 .91) rotate(-8.31)"/>
      <rect class="cls-1" x="28.36" y="11.76" width=".95" height=".48" transform="translate(23.85 42.83) rotate(-103.4)"/>
      <rect class="cls-1" x="78.2" y="22.99" width="1.17" height=".58" transform="translate(31.89 -44.17) rotate(38.73)"/>
      <rect class="cls-1" x="112.57" y="7.72" width="1.14" height=".57" transform="translate(219.53 47.34) rotate(-163.75)"/>
      <polygon class="cls-1" points="79.07 0 78.84 .86 79.36 1 79.62 0 79.07 0"/>
      <rect class="cls-1" x="92.99" y=".81" width=".97" height=".48" transform="translate(20.59 -57.48) rotate(38.12)"/>
      <rect class="cls-1" x="101.19" y="6.15" width=".92" height=".46" transform="translate(2.53 -17.06) rotate(9.71)"/>
      <rect class="cls-1" x="111.99" y="11.05" width="1.86" height=".93" transform="translate(42.42 -77.44) rotate(45.78)"/>
      <rect class="cls-1" x="67.5" y="6.03" width=".84" height=".42" transform="translate(43.51 -57.45) rotate(63.78)"/>
      <rect class="cls-1" x="26.11" y="31.73" width="1.11" height=".56" transform="translate(15.31 72.09) rotate(-124.37)"/>
      <rect class="cls-1" x="48.96" y="5.45" width="1.04" height=".52" transform="translate(80.34 44.81) rotate(-134.87)"/>
      <rect class="cls-1" x="113.47" y="29.99" width=".95" height=".47" transform="translate(130.05 -86.55) rotate(83)"/>
      <rect class="cls-1" x="54.7" y="23.67" width="1.42" height=".71" transform="translate(102.71 61.56) rotate(-165.01)"/>
      <rect class="cls-1" x="57.81" y="12.82" width="1.39" height=".7" transform="translate(6.67 -16.99) rotate(17.51)"/>
      <rect class="cls-1" x="96.6" y="81.49" width="1.37" height=".69" transform="translate(208.8 20.78) rotate(111.23)"/>
      <rect class="cls-1" x="21.53" y="29.22" width="1.27" height=".63" transform="translate(-11.39 14.12) rotate(-28.43)"/>
      <rect class="cls-1" x="4.64" y="6" width="1.15" height=".58" transform="translate(1.03 13.31) rotate(-109.57)"/>
      <rect class="cls-1" x="5.98" y="10.88" width="1.77" height=".89" transform="translate(16.61 2.35) rotate(78.56)"/>
      <rect class="cls-1" x="13.2" y="5.13" width="1.69" height=".84" transform="translate(-.61 1.92) rotate(-7.64)"/>
      <rect class="cls-1" x="111.92" y="1.66" width="1.15" height=".57" transform="translate(224.47 12.98) rotate(-175.36)"/>
      <polygon class="cls-1" points="60.57 0 61.48 1.11 62.05 .65 61.52 0 60.57 0"/>
      <rect class="cls-1" x="74.78" y="11.93" width="1.44" height=".72" transform="translate(149.73 -6.19) rotate(156.78)"/>
      <rect class="cls-1" x="35.64" y="4.41" width="1.08" height=".54" transform="translate(63.01 29.39) rotate(-144.72)"/>
      <rect class="cls-1" x="108.05" y="12.45" width="2.01" height="1.01" transform="translate(52.35 -81.1) rotate(52.14)"/>
      <rect class="cls-1" x="73.1" y="26.89" width="1.71" height=".86" transform="translate(104.97 99.81) rotate(-133.43)"/>
      <rect class="cls-1" x="106.99" y="18.93" width="1.91" height=".95" transform="translate(167.42 -72.75) rotate(112.65)"/>
      <rect class="cls-1" x="105.62" y="11.86" width=".89" height=".45" transform="translate(199.37 -39.79) rotate(144.43)"/>
      <rect class="cls-1" x="84.14" y="12.11" width=".94" height=".47" transform="translate(92.64 -72.78) rotate(87.09)"/>
      <rect class="cls-1" x="29.8" y="5.66" width="1.48" height=".74" transform="translate(61.62 7.81) rotate(172.12)"/>
      <polygon class="cls-1" points="8.94 0 8.31 .18 8.44 .62 9.32 .37 9.22 0 8.94 0"/>
      <rect class="cls-1" x="8.44" y="3.08" width="1.67" height=".84" transform="translate(10.84 -6.29) rotate(78.43)"/>
      <rect class="cls-1" x="56.67" y="10.64" width="1.52" height=".76" transform="translate(26.12 -38.36) rotate(46.76)"/>
      <rect class="cls-1" x="35.21" y="14.24" width="1.29" height=".64" transform="translate(12.14 45.15) rotate(-74.31)"/>
      <rect class="cls-1" x="72.85" y="29" width="1.22" height=".61" transform="translate(125.54 88.81) rotate(-152.94)"/>
      <rect class="cls-1" x="104.28" y="3.76" width="1.02" height=".51" transform="translate(75.84 -96.78) rotate(71.78)"/>
      <rect class="cls-1" x="17.45" y="7.25" width="1.59" height=".79" transform="translate(37.95 5.95) rotate(152.33)"/>
      <polygon class="cls-1" points="86.97 0 85.65 .44 85.92 1.25 87.54 .71 87.3 0 86.97 0"/>
      <rect class="cls-1" x="99.64" y="7.1" width="1.3" height=".65" transform="translate(194.78 -27) rotate(155.75)"/>
      <rect class="cls-1" x="77.76" y="50.11" width="1.08" height=".54" transform="translate(170.62 62.47) rotate(154.71)"/>
      <rect class="cls-1" x="21.31" y="2.01" width="1.66" height=".83" transform="translate(.01 4.97) rotate(-12.82)"/>
      <rect class="cls-1" x="83.92" y="19.57" width="1.66" height=".83" transform="translate(90.15 106.89) rotate(-106.82)"/>
      <rect class="cls-1" x="47.17" y="8.29" width="1.5" height=".75" transform="translate(94.97 21.2) rotate(-175.32)"/>
      <rect class="cls-1" x="79.55" y="35.53" width=".9" height=".45" transform="translate(106.43 -47.79) rotate(83.47)"/>
      <rect class="cls-1" x="7.94" y="71.6" width=".97" height=".48" transform="translate(68.89 32.15) rotate(63.41)"/>
      <rect class="cls-1" x="108.94" y="60.31" width="1.38" height=".69" transform="translate(166.39 172.35) rotate(-145.9)"/>
      <rect class="cls-1" x="46.7" y="65.37" width="1.72" height=".86" transform="translate(67.1 144.6) rotate(-158.06)"/>
      <rect class="cls-1" x="19.09" y="24.58" width="1.08" height=".54" transform="translate(8.97 -4.97) rotate(18.64)"/>
      <rect class="cls-1" x="83.99" y="52.09" width="1.3" height=".65" transform="translate(80.79 -47.07) rotate(56.01)"/>
      <rect class="cls-1" x="88.54" y="15.08" width="1.2" height=".6" transform="translate(-1.3 17.01) rotate(-10.82)"/>
      <rect class="cls-1" x="73.72" y="13.04" width="1.23" height=".61" transform="translate(147.83 30.71) rotate(-176.88)"/>
      <rect class="cls-1" x="79.52" y="1.74" width="1.5" height=".75" transform="translate(52.29 77.38) rotate(-71.11)"/>
      <rect class="cls-1" x="2.46" y="15.78" width="1.23" height=".62" transform="translate(1.49 -.21) rotate(5.26)"/>
      <rect class="cls-1" x="54.38" y="53.95" width="1.19" height=".6" transform="translate(-11.9 15.61) rotate(-14.6)"/>
      <rect class="cls-1" x="37.48" y="26.63" width="1.19" height=".59" transform="translate(82.95 39.6) rotate(160.51)"/>
      <rect class="cls-1" x="40.08" y="41.29" width="1.94" height=".97" transform="translate(98.95 50.57) rotate(143.14)"/>
      <rect class="cls-1" x="95.38" y="13.1" width="1.43" height=".72" transform="translate(-.66 6.08) rotate(-3.61)"/>
      <rect class="cls-1" x="49.92" y="9.38" width="1.06" height=".53" transform="translate(20.22 51.17) rotate(-64.77)"/>
      <rect class="cls-1" x="3.24" y="50.97" width="1.01" height=".51" transform="translate(-33.32 86.78) rotate(-129.63)"/>
      <rect class="cls-1" x="103.06" y="62.99" width="1.49" height=".74" transform="translate(198.43 -13.03) rotate(109.68)"/>
      <rect class="cls-1" x="15.36" y="2.63" width="1.09" height=".54" transform="translate(8.95 17.49) rotate(-74.86)"/>
      <rect class="cls-1" x="3.77" y="27.84" width=".85" height=".42" transform="translate(-7.37 53.95) rotate(-147.45)"/>
      <rect class="cls-1" x="90.06" y="43.64" width="1.69" height=".85" transform="translate(151.52 124.89) rotate(-152.73)"/>
      <rect class="cls-1" x="2.17" y="7.37" width="1.07" height=".53" transform="translate(4.61 -.24) rotate(33.06)"/>
      <rect class="cls-1" x="43.73" y="12.34" width="1.3" height=".65" transform="translate(1.58 -4.61) rotate(6.05)"/>
      <rect class="cls-1" x="34.02" y="1.72" width="1.31" height=".66" transform="translate(27.55 -31.95) rotate(74.79)"/>
      <rect class="cls-1" x="58.84" y="36.74" width="1.16" height=".58" transform="translate(129.1 30.18) rotate(142.46)"/>
      <rect class="cls-1" x="40.6" y="31.35" width="1.73" height=".87" transform="translate(51.86 82.97) rotate(-138.95)"/>
      <rect class="cls-1" x="69.62" y="10.99" width="1.45" height=".73" transform="translate(17.76 -36.73) rotate(33.27)"/>
      <rect class="cls-1" x="106.82" y="51.22" width="1.02" height=".51" transform="translate(121.81 169.63) rotate(-122.61)"/>
      <rect class="cls-1" x="85.46" y="15.67" width="1.06" height=".53" transform="translate(155.84 -36.67) rotate(132.52)"/>
      <rect class="cls-1" x="60.87" y="5.67" width=".97" height=".48" transform="translate(108.52 -33.77) rotate(134.43)"/>
      <rect class="cls-1" x="10.47" y="39.32" width=".9" height=".45" transform="translate(-14.68 71.61) rotate(-125.95)"/>
      <rect class="cls-1" x="73.35" y="14.14" width=".89" height=".45" transform="translate(146.87 -3.34) rotate(155.36)"/>
      <rect class="cls-1" x="113.24" y="36.35" width=".85" height=".43" transform="translate(154.4 148.81) rotate(-127.78)"/>
      <rect class="cls-1" x="115.14" y="21.08" width="1.01" height=".5" transform="translate(15.58 -40.44) rotate(21.24)"/>
      <rect class="cls-1" x="110.1" y="10.43" width=".81" height=".41" transform="translate(87.09 -97.88) rotate(72.33)"/>
      <rect class="cls-1" x="42.41" y="14.54" width="1.13" height=".57" transform="translate(81.25 39.37) rotate(-166.35)"/>
      <rect class="cls-1" x="52.91" y="10.18" width="1.35" height=".67" transform="translate(102.44 34.93) rotate(-164.55)"/>
      <rect class="cls-1" x="117.08" y="24.35" width="1.75" height=".87" transform="translate(218.13 91.81) rotate(-158.08)"/>
      <rect class="cls-1" x="109.62" y="2.53" width="1.59" height=".79" transform="translate(53.64 -91.82) rotate(57.55)"/>
      <rect class="cls-1" x="70.72" y="1.43" width="1.71" height=".86" transform="translate(139.74 -20.04) rotate(160.7)"/>
      <rect class="cls-1" x="81.96" y="10.84" width="1.02" height=".51" transform="translate(19.7 65.74) rotate(-48.7)"/>
      <rect class="cls-1" x="32.25" y="2.23" width="1.39" height=".7" transform="translate(-.09 1.73) rotate(-3.01)"/>
      <rect class="cls-1" x="111.35" y="10.42" width="1.61" height=".8" transform="translate(46.62 -80.83) rotate(48.92)"/>
      <rect class="cls-1" x="98.98" y=".05" width="1.01" height=".51" transform="translate(.15 -5.1) rotate(2.94)"/>
      <rect class="cls-1" x="101.38" y="31.93" width="1.31" height=".65" transform="translate(169.02 -51.18) rotate(111.21)"/>
      <rect class="cls-1" x="34.58" y="10.05" width="1.6" height=".8" transform="translate(13.45 -19.22) rotate(37.07)"/>
      <rect class="cls-1" x="94.77" y="11.91" width="1.1" height=".55" transform="translate(86.05 -83.46) rotate(77.18)"/>
      <rect class="cls-1" x="93.18" y="26.02" width=".91" height=".46" transform="translate(67.26 -67.35) rotate(58.6)"/>
      <rect class="cls-1" x="84.21" y="1.2" width=".89" height=".45" transform="translate(99.97 84.69) rotate(-101.39)"/>
      <rect class="cls-1" x="97.73" y="7.57" width=".9" height=".45" transform="translate(87.64 -90.13) rotate(79.32)"/>
      <rect class="cls-1" x="65.85" y="10.65" width="1.93" height=".96" transform="translate(25.11 64.51) rotate(-61.46)"/>
      <rect class="cls-1" x="67.92" y="2.02" width="1.47" height=".73" transform="translate(28.14 -53.1) rotate(51.87)"/>
      <rect class="cls-1" x="69.98" y="72.76" width="1.78" height=".89" transform="translate(62.03 174.71) rotate(-130.96)"/>
      <rect class="cls-1" x="90.12" y="5.34" width=".96" height=".48" transform="translate(27.9 71.22) rotate(-49.84)"/>
      <rect class="cls-1" x="94.76" y=".35" width="1.48" height=".74" transform="translate(.9 -12.37) rotate(7.45)"/>
      <rect class="cls-1" x="9.36" y="32.22" width="1.25" height=".63" transform="translate(26.03 62.56) rotate(168.94)"/>
      <rect class="cls-1" x="51.49" y="6.27" width=".79" height=".4" transform="translate(59.91 58.14) rotate(-105.93)"/>
      <rect class="cls-1" x="106.61" y="42.28" width="1.35" height=".68" transform="translate(139.06 -68.37) rotate(84.31)"/>
      <rect class="cls-1" x="98.46" y="12.03" width="1.04" height=".52" transform="translate(100.05 112.02) rotate(-97.69)"/>
      <rect class="cls-1" x="114.14" y="11.2" width="1.26" height=".63" transform="translate(16.12 71.29) rotate(-36.94)"/>
      <rect class="cls-1" x="9.59" y="11.87" width=".92" height=".46" transform="translate(11.6 27.75) rotate(-145.91)"/>
      <rect class="cls-1" x="77.24" y="12.12" width="1.14" height=".57" transform="translate(1.26 -6.26) rotate(4.65)"/>
      <rect class="cls-1" x="60.75" y="27.25" width="1.55" height=".78" transform="translate(36.7 -35.07) rotate(44.21)"/>
      <rect class="cls-1" x="102.41" y=".49" width="1.4" height=".7" transform="translate(33.85 77.23) rotate(-48.27)"/>
      <rect class="cls-1" x="49.98" y="20.26" width="1.08" height=".54" transform="translate(16.4 -22.01) rotate(29.15)"/>
      <rect class="cls-1" x="63.5" y="28.19" width="1.12" height=".56" transform="translate(31.96 90.78) rotate(-86.71)"/>
      <rect class="cls-1" x="29.76" y="1.33" width="1.26" height=".63" transform="translate(36.37 -28.2) rotate(98.24)"/>
      <rect class="cls-1" x="82.26" y="3.22" width=".9" height=".45" transform="translate(154.07 45.41) rotate(-151.93)"/>
      <rect class="cls-1" x="39.88" y="46" width="1.21" height=".61" transform="translate(91.69 80.4) rotate(164.83)"/>
      <rect class="cls-1" x="52.78" y="7.56" width=".98" height=".49" transform="translate(4.81 -15.66) rotate(17.5)"/>
      <rect class="cls-1" x="17.2" y="21.08" width=".93" height=".47" transform="translate(19.45 -6.31) rotate(43.35)"/>
      <rect class="cls-1" x="13.26" y="2.73" width="1.06" height=".53" transform="translate(3.79 -6.96) rotate(32.65)"/>
      <rect class="cls-1" x="63.86" y="3.27" width="1.72" height=".86" transform="translate(4.15 -19.4) rotate(17.61)"/>
      <rect class="cls-1" x="17.17" y="43.41" width="1.14" height=".57" transform="translate(-15.27 10.01) rotate(-22.32)"/>
      <rect class="cls-1" x="88.63" y="32.76" width=".92" height=".46" transform="translate(-5.86 29.69) rotate(-18.33)"/>
      <rect class="cls-1" x="65.21" y="50.48" width="1.4" height=".7" transform="translate(148.92 56.98) rotate(146.61)"/>
      <rect class="cls-1" x="78.03" y="10.21" width="1.07" height=".54" transform="translate(14.02 -35.52) rotate(27.88)"/>
      <polygon class="cls-1" points="34.77 0 34.56 .02 34.61 .47 35.5 .37 35.46 0 34.77 0"/>
      <rect class="cls-1" x="118.19" y="38.43" width="1.52" height=".76" transform="translate(55.01 146.36) rotate(-77.34)"/>
      <rect class="cls-1" x="45.49" y="7.31" width="1.24" height=".62" transform="translate(23.96 48.77) rotate(-71.08)"/>
      <rect class="cls-1" x="82.57" y="2.95" width="1.34" height=".67" transform="translate(8.06 -32.6) rotate(23.26)"/>
      <rect class="cls-1" x="118.56" y="53.01" width=".89" height=".45" transform="translate(-10.24 70.28) rotate(-31.61)"/>
      <rect class="cls-1" x="72.48" y="9.45" width="1.72" height=".86" transform="translate(105.18 76.69) rotate(-123.15)"/>
      <rect class="cls-1" x="13.07" y="57.9" width="1.37" height=".69" transform="translate(69.89 37.49) rotate(83)"/>
      <rect class="cls-1" x="11.29" y="29.82" width="1.49" height=".75" transform="translate(-14.57 11.53) rotate(-33.22)"/>
      <rect class="cls-1" x="36.32" y="5.78" width="1.56" height=".78" transform="translate(-.02 12.24) rotate(-18.73)"/>
      <rect class="cls-1" x="98.28" y="3.26" width="1.67" height=".83" transform="translate(29.41 74.24) rotate(-47.47)"/>
      <rect class="cls-1" x="73.38" y="41.27" width=".96" height=".48" transform="translate(-7.85 19.09) rotate(-14)"/>
      <polygon class="cls-1" points="71.27 62.76 71.22 63.67 70.77 63.64 70.82 62.74 71.27 62.76"/>
      <rect class="cls-1" x="95.6" y="29.63" width="1.28" height=".64"/>
      <rect class="cls-1" x="36.55" y="11.81" width="1.23" height=".61" transform="translate(12.01 42.04) rotate(-68.01)"/>
      <rect class="cls-1" x="52.3" y="30.04" width="1.22" height=".61" transform="translate(64 90.32) rotate(-130.31)"/>
      <rect class="cls-1" x="73.29" y="1.23" width="1.14" height=".57" transform="translate(115.22 -59.7) rotate(122.87)"/>
      <rect class="cls-1" x="93.59" y="5.49" width="1.11" height=".56" transform="translate(105.85 -87.83) rotate(93.63)"/>
      <polygon class="cls-1" points=".76 7.89 0 8.44 0 8.5 .26 8.85 1.04 8.28 .76 7.89"/>
      <rect class="cls-1" x="16.15" y="35.87" width="1.76" height=".88" transform="translate(40.99 68.48) rotate(168.44)"/>
      <rect class="cls-1" x="58.49" y="41.79" width=".93" height=".47" transform="translate(117.69 84.37) rotate(-179.7)"/>
      <rect class="cls-1" x="24.29" y="26.41" width="1.12" height=".56" transform="translate(13.83 61.44) rotate(-119.46)"/>
      <rect class="cls-1" x="78.99" y="6.64" width="1.6" height=".8" transform="translate(137.81 62.25) rotate(-141.47)"/>
      <rect class="cls-1" x="67.46" y="53.48" width=".8" height=".4" transform="translate(24.34 -21.1) rotate(21.46)"/>
      <rect class="cls-1" x="9.86" y="51.46" width="1.55" height=".78" transform="translate(42.8 93.89) rotate(154.18)"/>
      <rect class="cls-1" x="46.1" y="4.05" width="1.37" height=".68" transform="translate(11.17 -26.27) rotate(35.36)"/>
      <polygon class="cls-1" points="53.1 0 53.11 .6 54.92 .56 54.91 0 53.1 0"/>
      <rect class="cls-1" x="85.84" y="29.7" width="1.66" height=".83" transform="translate(55.43 116.39) rotate(-89.26)"/>
      <polygon class="cls-1" points="30.91 0 30.59 .81 32.34 1.51 32.69 .64 31.1 0 30.91 0"/>
      <rect class="cls-1" x="62.79" y="55.95" width="1.3" height=".65" transform="translate(126.6 112.87) rotate(-179.72)"/>
      <rect class="cls-1" x="75.84" y="7.16" width="1.34" height=".67" transform="translate(138.42 53.08) rotate(-149.22)"/>
      <rect class="cls-1" x="70.82" y="25.85" width="1.23" height=".62" transform="translate(109.33 -39.81) rotate(99.76)"/>
      <rect class="cls-1" x="35.29" y="3.33" width="1.01" height=".51" transform="translate(39.85 -32.16) rotate(90.74)"/>
      <rect class="cls-1" x="79.24" y="15.2" width="1.13" height=".57" transform="translate(11.15 -28.05) rotate(21.4)"/>
      <rect class="cls-1" x="100.65" y="1.5" width="1.19" height=".6" transform="translate(124.79 100.29) rotate(-104.46)"/>
      <rect class="cls-1" x="82.74" y="57.22" width="1.58" height=".79" transform="translate(113.78 154.49) rotate(-141.94)"/>
      <rect class="cls-1" x="7.24" y="25.11" width="1.16" height=".58" transform="translate(29.41 9.89) rotate(71.4)"/>
      <polygon class="cls-1" points="29.21 0 29.66 .96 30.31 .66 29.99 0 29.21 0"/>
      <rect class="cls-1" x="74.7" y="11.67" width="1" height=".5" transform="translate(139.87 52.1) rotate(-157.16)"/>
      <rect class="cls-1" x="53.22" y="36.9" width="1.26" height=".63" transform="translate(115.19 14.35) rotate(124.91)"/>
      <rect class="cls-1" x="98.76" y="54.67" width="1.22" height=".61" transform="translate(201.54 104.54) rotate(176.93)"/>
      <rect class="cls-1" x="91.94" y="16.61" width="1.04" height=".52" transform="translate(10.7 -29.49) rotate(19.21)"/>
      <polygon class="cls-1" points="94.51 0 94.44 .67 95.02 .73 95.09 0 94.51 0"/>
      <rect class="cls-1" x="101.12" y="28.93" width=".9" height=".45" transform="translate(129.5 -72.75) rotate(89.31)"/>
      <rect class="cls-1" x="60.39" y="33.52" width="1.31" height=".66" transform="translate(93.92 -27.73) rotate(89.08)"/>
      <rect class="cls-1" x="8.89" y="27.64" width="1.84" height=".92" transform="translate(9.35 -1.66) rotate(18.36)"/>
      <rect class="cls-1" x="101.95" y="14.05" width=".99" height=".5" transform="translate(205.12 26.76) rotate(178.98)"/>
      <rect class="cls-1" x="26.98" y="75.12" width="1.56" height=".78" transform="translate(-23.68 137.37) rotate(-120.07)"/>
      <rect class="cls-1" x="101.82" y="8.35" width="1.88" height=".94" transform="translate(16.22 -47.29) rotate(28.06)"/>
      <rect class="cls-1" x="82.2" y="44.74" width="1.41" height=".7" transform="translate(28.93 122.51) rotate(-83.66)"/>
      <rect class="cls-1" x="6.83" y="31.01" width="1.47" height=".73" transform="translate(39.49 26.66) rotate(95.14)"/>
      <rect class="cls-1" x="91.64" y="30.02" width="1.88" height=".94" transform="translate(29.88 -44.14) rotate(31.74)"/>
      <rect class="cls-1" x="87.35" y="1.42" width="1.43" height=".71" transform="translate(26.25 64.53) rotate(-46.59)"/>
      <rect class="cls-1" x="55.5" y="12.28" width="1.24" height=".62" transform="translate(56.7 70.1) rotate(-103.23)"/>
      <rect class="cls-1" x="106.18" y="1.56" width="1.61" height=".8" transform="translate(153.99 -94.15) rotate(115.01)"/>
      <rect class="cls-1" x="43.43" y="7.37" width="1.19" height=".6" transform="translate(88.11 .37) rotate(160.71)"/>
      <rect class="cls-1" x="72.23" y="11.73" width="1.03" height=".51" transform="translate(11.09 52.41) rotate(-42.61)"/>
      <rect class="cls-1" x="103.69" y="11.53" width=".99" height=".5" transform="translate(62.47 -84.42) rotate(60.1)"/>
      <rect class="cls-1" x="16.01" y="14.25" width="1.34" height=".67" transform="translate(-2.17 2.94) rotate(-9.45)"/>
      <rect class="cls-1" x="68.27" y="41.65" width="1.71" height=".86" transform="translate(14.97 102.22) rotate(-79.33)"/>
      <rect class="cls-1" x="31.66" y="11.86" width="1.86" height=".93" transform="translate(66.3 21.11) rotate(173.9)"/>
      <rect class="cls-1" x="29.06" y="29.37" width="1.74" height=".87" transform="translate(-9.05 13.53) rotate(-22.22)"/>
      <rect class="cls-1" x="115.97" y="3.36" width="1.01" height=".5" transform="translate(206.96 77.05) rotate(-142.71)"/>
      <rect class="cls-1" x="31.34" y="13.09" width="1.09" height=".54" transform="translate(26.98 47.57) rotate(-104.58)"/>
      <rect class="cls-1" x="28.72" y="9.88" width="1.34" height=".67" transform="translate(11.47 -15.22) rotate(35.68)"/>
      <rect class="cls-1" x="46.49" y="1.46" width="1.15" height=".58" transform="translate(92.03 15.79) rotate(-164.79)"/>
      <polygon class="cls-1" points="58.31 0 58.19 .72 58.75 .81 58.88 0 58.31 0"/>
      <rect class="cls-1" x="59.56" y="17.71" width="1.63" height=".82" transform="translate(68.76 -44.36) rotate(80.94)"/>
      <rect class="cls-1" x="22.37" y="19.98" width="1.29" height=".65" transform="translate(20.15 -10.25) rotate(43.23)"/>
      <rect class="cls-1" x="27.54" y="10.99" width=".89" height=".44" transform="translate(52.86 -5.83) rotate(123.77)"/>
      <rect class="cls-1" x="76.14" y="36.48" width="1.07" height=".53" transform="translate(141.5 91.78) rotate(-165.28)"/>
      <rect class="cls-1" x="32.49" y="26.04" width="1.07" height=".54" transform="translate(36.37 -15.78) rotate(56.01)"/>
      <rect class="cls-1" x="97.17" y="6.22" width="1.5" height=".75" transform="translate(130.92 99.02) rotate(-113.5)"/>
      <rect class="cls-1" x="90.91" y=".65" width="1.32" height=".66" transform="translate(181.35 19.05) rotate(-169.23)"/>
      <polygon class="cls-1" points="69.84 0 70.09 .23 70.3 0 69.84 0"/>
      <polygon class="cls-1" points="105.14 0 104.93 .36 106.07 1.02 106.4 .44 105.63 0 105.14 0"/>
      <rect class="cls-1" x="54.4" y="6.87" width=".91" height=".45" transform="translate(9.6 -24.71) rotate(27.73)"/>
      <rect class="cls-1" x="26.82" y="58.6" width="1.17" height=".59" transform="translate(-37.07 51.02) rotate(-58.08)"/>
      <rect class="cls-1" x="17.61" y="12.37" width="1.93" height=".96" transform="translate(2.21 -2.71) rotate(8.88)"/>
      <rect class="cls-1" x="29.2" y="10.82" width="1.12" height=".56" transform="translate(59.94 20.98) rotate(177.67)"/>
      <rect class="cls-1" x="45.79" y="34.41" width="1.21" height=".6" transform="translate(98.76 9.91) rotate(117.85)"/>
      <rect class="cls-1" x="105.55" y="11.06" width="1.59" height=".8" transform="translate(87.88 116.81) rotate(-86.21)"/>
      <rect class="cls-1" x="33.74" y="5.14" width="1.29" height=".65" transform="translate(15.8 34.9) rotate(-66.76)"/>
      <rect class="cls-1" x="74.36" y="5.72" width="1" height=".5" transform="translate(143.7 35.96) rotate(-161.02)"/>
      <rect class="cls-1" x="44.53" y="21.47" width="1.64" height=".82" transform="translate(44.42 -28.46) rotate(63.19)"/>
      <rect class="cls-1" x="47.77" y="54.27" width="1.42" height=".71" transform="translate(-15.46 89.91) rotate(-77.3)"/>
      <rect class="cls-1" x="97.64" y="29.01" width=".96" height=".48" transform="translate(23.44 -40.79) rotate(26.56)"/>
      <rect class="cls-1" x="74.72" y="3.76" width="1.19" height=".6" transform="translate(8.76 -31.44) rotate(24.99)"/>
      <rect class="cls-1" x="13.99" y="7.89" width=".92" height=".46" transform="translate(25.06 20.86) rotate(-159.09)"/>
      <rect class="cls-1" x="72.23" y="54.27" width="1.46" height=".73" transform="translate(145.86 -.08) rotate(106.28)"/>
      <rect class="cls-1" x="105.95" y="3.26" width="1.59" height=".8" transform="translate(50.99 -87.45) rotate(56.57)"/>
      <rect class="cls-1" x="59.68" y="8.11" width="1.4" height=".7" transform="translate(6.23 36.48) rotate(-35.33)"/>
      <rect class="cls-1" x="108.99" y="46.69" width=".92" height=".46" transform="translate(226.31 69.89) rotate(167.92)"/>
      <rect class="cls-1" x="69.45" y="3.13" width=".9" height=".45" transform="translate(45.71 69.02) rotate(-72.54)"/>
      <rect class="cls-1" x="76.88" y="31.39" width="1.57" height=".78" transform="translate(26.65 -34.84) rotate(30.3)"/>
      <rect class="cls-1" x="37.88" y="21.31" width="1.84" height=".92" transform="translate(-5.63 19.48) rotate(-26.34)"/>
      <rect class="cls-1" x=".66" y="9.85" width="1.53" height=".76" transform="translate(6.46 19.24) rotate(158.66)"/>
      <rect class="cls-1" x="102.11" y="6.62" width=".95" height=".48" transform="translate(87.45 108.56) rotate(-85.36)"/>
      <rect class="cls-1" x="47.83" y="17.74" width="1.77" height=".88" transform="translate(5.32 46.82) rotate(-53.89)"/>
      <rect class="cls-1" x="74.15" y="3.64" width="1.27" height=".63" transform="translate(129.04 -47.67) rotate(133.4)"/>
      <rect class="cls-1" x="71.17" y="12.6" width="1.59" height=".8" transform="translate(138.68 -16.96) rotate(145.59)"/>
      <rect class="cls-1" x="63.99" y="61.92" width="1.12" height=".56" transform="translate(14.13 -11.92) rotate(11.83)"/>
      <rect class="cls-1" x="90.41" y="22.31" width="1.83" height=".92" transform="translate(-2.14 11.65) rotate(-7.22)"/>
      <rect class="cls-1" x="103.68" y="1.01" width="1.55" height=".78" transform="translate(204.39 31.85) rotate(-163.82)"/>
      <rect class="cls-1" x="63.27" y="31.86" width=".88" height=".44" transform="translate(34.02 -32.77) rotate(38.68)"/>
    </g>
  </g>
</svg>