<?xml version="1.0" encoding="UTF-8"?>
<svg id="katman_2" data-name="katman 2" xmlns="http://www.w3.org/2000/svg" viewBox="0 0 345.34 358.77">
  <defs>
    <style>
      .cls-1 {
        fill: #000;
        stroke-width: 0px;
      }
    </style>
  </defs>
  <g id="katman_1" data-name="katman 1">
    <path class="cls-1" d="M177.5,0c78.3-.02,150.19,59.25,164.8,140.22,8.22,45.52-.19,88.27-25.42,127.34-1.88,2.91-1.96,5.05-.58,8.12,9.14,20.33,18.12,40.73,27.06,61.14,4.48,10.24-1.27,20.32-12.29,21.84-2.57.36-4.94-.2-7.23-1.32-20.92-10.24-41.85-20.43-62.73-30.75-2.36-1.17-4.13-1.17-6.52.08-32.34,16.93-66.77,23.17-102.84,18.25-57.36-7.81-100.75-37.22-129.53-87.33C3.17,224.43-3.85,188.28,2.01,150.5,12.51,82.67,50.75,36.31,114.15,10.73,133.04,3.11,153.03.12,177.5,0ZM141.6,104.36c-11.94-.17-28.01,6.88-36.04,15.81-17.71,19.7-17.39,48.08,1.05,67.4,17.04,17.86,34.35,35.46,51.56,53.16,10.03,10.31,20.46,10.36,30.48.08,16.97-17.41,33.91-34.85,50.8-52.33,2.07-2.14,4-4.47,5.7-6.91,7.32-10.58,8.15-22.16,6.34-34.66-4.9-33.85-42.37-57.5-77.11-33.68-1.77,1.22-2.87,1.54-4.8.15-8.33-5.99-17.7-8.97-27.98-9.02Z"/>
  </g>
</svg>