<?xml version="1.0" encoding="UTF-8"?>
<svg id="katman_2" data-name="katman 2" xmlns="http://www.w3.org/2000/svg" viewBox="0 0 207.54 319.32">
  <defs>
    <style>
      .cls-1 {
        fill: #000;
        stroke-width: 0px;
      }
    </style>
  </defs>
  <g id="katman_1" data-name="katman 1">
    <path class="cls-1" d="M103.81,319.29c-23.82,0-47.65-.06-71.47.03-7.87.03-15.1-1.75-21.34-6.64-9.38-7.35-12.16-16.92-10.28-28.57,5.07-31.36,20.21-57.26,42.29-79.5,7.38-7.43,14.93-14.7,22.43-22.01,14.08-13.72,14.12-32.23,0-45.85-14.54-14.03-29.37-27.77-41.23-44.3C10.78,73.72,2.89,52.85.16,30.03-1.38,17.16,8.65,4.43,22.67.98,25.98.17,29.32.04,32.69.04,80.09.04,127.48.09,174.88,0c8.97-.02,17.03,2.16,23.72,8.31,7.97,7.33,9.95,16.38,8.26,26.9-5.05,31.37-20.21,57.26-42.27,79.51-7.46,7.53-15.11,14.87-22.69,22.28-13.74,13.4-13.8,31.92,0,45.3,12.81,12.41,25.85,24.57,37.01,38.58,15.19,19.06,24.2,40.72,28.2,64.69,3.4,20.38-13.38,33.27-28.08,33.58-12.34.26-24.69.13-37.04.14-12.72.02-25.44,0-38.17,0ZM103.99,23.99c-2.12,0-4.24,0-6.36,0-18.83,0-37.65-.02-56.48.02-5.71.01-9.24,3.19-8.96,8.16,1.19,21.02,7.6,40,21.9,55.91,13.71,15.25,29.95,27.81,44.55,42.11,3.15,3.08,7.65,2.57,11.16-.66,12.11-11.14,24.23-22.27,36.22-33.54,17.63-16.59,27.66-36.83,29.1-61.19.47-7.97-1.83-10.79-9.8-10.8-20.45-.02-40.89,0-61.34,0Z"/>
  </g>
</svg>