<?xml version="1.0" encoding="UTF-8"?>
<svg id="katman_2" data-name="katman 2" xmlns="http://www.w3.org/2000/svg" viewBox="0 0 227.93 227.93">
  <defs>
    <style>
      .cls-1 {
        fill: #eaeaea;
      }

      .cls-1, .cls-2 {
        stroke-width: 0px;
      }

      .cls-2 {
        fill: #0e402d;
      }
    </style>
  </defs>
  <g id="katman_1" data-name="katman 1">
    <g>
      <circle class="cls-1" cx="113.96" cy="113.96" r="113.96"/>
      <path class="cls-2" d="M71.1,62.37c-7.4,2.29-12.51,9.18-12.56,17.94.25,5.54,2.96,10.72,8.57,14.31,1.44.92,2.2.96,3.14-.79,4.79-8.82,11.49-15.91,20.06-21.15,1.73-1.06,1.78-1.85.7-3.41-4.39-6.32-12.51-9.19-19.91-6.9ZM149.88,82.25c-16.28-11.03-33.49-12.88-51.07-4.06-17.65,8.86-26.09,24-26.98,41.83.18,12.42,3.32,22.12,9.57,30.85,1.34,1.87,2.06,2.1,3.83.32,21.59-21.72,43.24-43.38,64.97-64.96,1.84-1.82,1.73-2.6-.31-3.99ZM138.98,109.94c-9.19,9.27-18.42,18.49-27.69,27.68-1.34,1.33-.63,1.73.58,2.23,2.85,1.19,5.79,1.91,8.89,1.91,15.92.02,26.85-16.24,20.65-30.79-.4-.95-.51-2.98-2.43-1.04ZM60.16,102.63c.94-.78.87-1.33-.14-2.13-1.51-1.21-3.1-2.48-4.17-4.05-1.43-2.11-2.29-1.4-3.66-.02-13.19,13.22-26.39,26.43-39.59,39.64.82,3.77,1.83,7.46,3.05,11.06,14.57-14.57,29.14-29.14,43.72-43.71.26-.26.51-.54.8-.78ZM113.96,10.24C56.68,10.24,10.24,56.68,10.24,113.96c0,3.81.21,7.57.61,11.28,12.68-12.68,25.36-25.38,38.06-38.05,1.14-1.14,1.33-2.21,1.08-3.71-2.07-12.38,5.09-24.65,16.9-29.09,11.84-4.45,25.2-.08,31.88,10.68,1.28,2.06,2.24,2.3,4.52,1.63,21.73-6.33,41.02-1.85,57.74,13.45,2.8,2.56,2.8,4.9.11,7.63-4.1,4.17-8.19,8.35-12.41,12.4-1.44,1.38-1.59,2.34-.59,4.16,11.63,21.03-3.82,46.65-27.85,46.26-5.28-.08-10.31-1.39-14.82-4.17-1.58-.97-2.38-.62-3.5.53-4.87,4.97-9.81,9.88-14.75,14.78-3.07,3.05-5.34,3.04-8.25-.1-12.1-13.06-17.32-28.45-15.59-46.18.08-.83.15-1.66.19-2.5,0-.15-.12-.3-.21-.51-1.01.17-1.47,1.05-2.09,1.67-14.03,14.01-28.05,28.04-42.07,42.06,16.17,36.23,52.52,61.49,94.76,61.49,57.29,0,103.72-46.44,103.72-103.72S171.25,10.24,113.96,10.24ZM138.67,181.62c-.11,2.83-1.96,4.7-4.47,4.68-2.51-.02-4.34-1.91-4.39-4.76-.07-4.27-.08-8.53,0-12.8.05-2.82,1.94-4.7,4.46-4.68,2.51.02,4.26,1.91,4.41,4.75,0,.19,0,.37,0,.56,0,1.95,0,3.9,0,5.84,0,2.13.06,4.27-.02,6.4ZM172.1,167.84c-1.71.94-3.52.92-4.92-.41-3.29-3.12-6.55-6.29-9.6-9.63-1.65-1.81-1.43-4.01.29-5.76,1.72-1.75,3.95-2.03,5.76-.4,3.43,3.1,6.63,6.45,9.87,9.76.64.65.92,1.6.87,2.3-.02,2-.76,3.33-2.26,4.15ZM183.06,132.83c-2.22.09-4.45.02-6.68.02-2.13,0-4.27.07-6.4-.02-2.66-.12-4.48-1.92-4.54-4.33-.06-2.52,1.81-4.47,4.61-4.52,4.36-.09,8.72-.09,13.08,0,2.66.06,4.48,1.91,4.54,4.32.06,2.51-1.82,4.42-4.62,4.53Z"/>
    </g>
  </g>
</svg>