<?xml version="1.0" encoding="UTF-8"?>
<svg id="katman_2" data-name="katman 2" xmlns="http://www.w3.org/2000/svg" viewBox="0 0 236.12 262.81">
  <defs>
    <style>
      .cls-1 {
        fill: #000;
        stroke-width: 0px;
      }
    </style>
  </defs>
  <g id="katman_1" data-name="katman 1">
    <g>
      <path class="cls-1" d="M111.8,59.8c-1.01.17-1.47,1.05-2.09,1.67-21.08,21.05-42.14,42.12-63.21,63.19-2.89,2.89-2.9,6.18-.01,9.06,18.9,18.9,37.81,37.79,56.69,56.71,1.17,1.17,2.2,1.88,4.07,1.56,18.75-3.14,34.61,14.11,30.02,32.66-.51,2.07-.37,2.88,1.95,2.58,2.54-.33,5.96,1.14,7.41-.62,1.25-1.51.38-4.79.39-7.28.05-9.89,8.19-16.44,17.19-13.83,5.56,1.62,9.45,6.68,9.52,12.66.08,7.15.05,14.29,0,21.44-.01,1.71.29,3.23,1.11,4.77,2.15,4.07,3.24,8.47,3.34,13.08.08,3.56-1.64,5.34-5.22,5.34-41.02.02-82.04.02-123.06,0-3.74,0-5.37-1.78-5.31-5.53.28-15.76,13.71-29.48,29.44-30.03,3.15-.11,6.31-.14,9.46-.04,1.91.06,2.67-.21,1.99-2.43-1.09-3.58-1.29-7.33-.42-11.01.41-1.7-.45-2.56-1.46-3.57-16.61-16.59-33.21-33.2-49.81-49.81-.92-.92-1.89-1.79-2.75-2.76-3.27-3.69-6.69-6.11-12.21-6.71C7,149.62-.89,138.94.08,127.3c.97-11.66,10.7-20.39,22.79-20.33,1.43,0,2.41-.39,3.4-1.38,23.67-23.71,47.36-47.41,71.08-71.06,1.14-1.14,1.33-2.21,1.08-3.71-2.07-12.38,5.09-24.65,16.9-29.09,11.84-4.45,25.2-.08,31.88,10.68,1.28,2.06,2.24,2.3,4.52,1.63,21.73-6.33,41.02-1.85,57.74,13.45,2.8,2.56,2.8,4.9.11,7.63-4.1,4.17-8.19,8.35-12.41,12.4-1.44,1.38-1.59,2.34-.59,4.16,11.63,21.03-3.82,46.65-27.85,46.26-5.28-.08-10.31-1.39-14.82-4.17-1.58-.97-2.38-.62-3.5.53-4.87,4.97-9.81,9.88-14.75,14.78-3.07,3.05-5.34,3.04-8.25-.1-12.1-13.06-17.32-28.45-15.59-46.18.08-.83.15-1.66.19-2.5,0-.15-.12-.3-.21-.51ZM120.28,67.36c.18,12.42,3.32,22.12,9.57,30.85,1.34,1.87,2.06,2.1,3.83.32,21.59-21.72,43.24-43.38,64.97-64.96,1.84-1.82,1.73-2.6-.31-3.99-16.28-11.03-33.49-12.88-51.07-4.06-17.65,8.86-26.09,24-26.98,41.83ZM111.43,253.98c18.27,0,36.54-.03,54.81.04,2.17,0,2.77-.38,1.95-2.56-3.02-7.98-8.45-13.25-16.93-14.82-6.32-1.17-12.77-.25-19.15-.48-.97-.03-1.47.67-2.07,1.23-11.13,10.3-26.17,10.3-37.31-.05-.88-.82-1.73-1.22-2.93-1.21-4.91.06-9.83-.07-14.75.05-9.21.23-17.43,6.43-20.43,15.07-.76,2.18-.44,2.78,1.98,2.77,18.27-.09,36.54-.05,54.81-.05ZM111.44,236.11c9.71-.02,17.73-8.02,17.77-17.72.04-9.84-8.02-17.92-17.86-17.91-9.83.02-17.84,8.13-17.77,17.99.07,9.69,8.13,17.65,17.85,17.63ZM41.39,117.04c.57-.53,1.12-1.01,1.64-1.53,21.59-21.59,43.19-43.18,64.78-64.78.26-.26.51-.54.8-.78.94-.78.87-1.32-.14-2.13-1.51-1.21-3.1-2.48-4.17-4.05-1.43-2.11-2.29-1.4-3.66-.02-21.5,21.56-43.03,43.07-64.56,64.6-.39.39-.78.79-1.17,1.19-.48.49-.52.95.08,1.37,2.22,1.56,4.1,3.48,5.68,5.68.14.19.44.27.73.44ZM95.95,195.89c-.43-.46-.92-1.01-1.44-1.53-17.11-17.11-34.23-34.21-51.3-51.35-1.4-1.41-2.32-2.13-3.66.08-.79,1.31-2.01,2.5-3.31,3.32-2.03,1.29-1.7,2.15-.18,3.66,16.7,16.6,33.33,33.27,49.98,49.92,3.04,3.04,3.02,3.02,5.88.04,1.02-1.06,2.19-1.99,3.28-3,.31-.29.86-.42.75-1.15ZM106.98,27.63c.25,5.54,2.96,10.72,8.57,14.31,1.44.92,2.2.96,3.14-.79,4.79-8.82,11.49-15.91,20.06-21.15,1.73-1.06,1.78-1.85.7-3.41-4.39-6.32-12.51-9.19-19.91-6.9-7.4,2.29-12.51,9.18-12.56,17.94ZM22.38,115.84c-7.27-.04-13.34,5.88-13.45,13.12-.11,7.38,5.9,13.55,13.26,13.59,7.37.05,13.47-6.03,13.45-13.4-.02-7.26-6-13.27-13.26-13.31ZM169.2,89.09c15.92.02,26.85-16.24,20.65-30.79-.4-.95-.51-2.98-2.43-1.04-9.19,9.27-18.42,18.49-27.69,27.68-1.34,1.33-.63,1.73.58,2.23,2.85,1.19,5.79,1.91,8.89,1.91ZM164.82,232.57c0-5.12.12-9.9-.05-14.67-.09-2.44-1.74-3.83-4.18-4.01-2.29-.18-4.42,1.54-4.56,3.93-.19,3.14-.07,6.29-.08,9.44,0,.69.09,1.32.87,1.54,2.74.8,5.18,2.3,8.01,3.78Z"/>
      <path class="cls-1" d="M224.82,80.18c-2.13,0-4.27.07-6.4-.02-2.66-.12-4.48-1.92-4.54-4.33-.06-2.52,1.81-4.47,4.61-4.52,4.36-.09,8.72-.09,13.08,0,2.66.06,4.48,1.91,4.54,4.32.06,2.51-1.82,4.42-4.62,4.53-2.22.09-4.45.02-6.68.02Z"/>
      <path class="cls-1" d="M187.13,122.55c0,2.13.06,4.27-.02,6.4-.11,2.83-1.96,4.7-4.47,4.68-2.51-.02-4.34-1.91-4.39-4.76-.07-4.27-.08-8.53,0-12.8.05-2.82,1.94-4.7,4.46-4.68,2.51.02,4.26,1.91,4.41,4.75,0,.19,0,.37,0,.56,0,1.95,0,3.9,0,5.84Z"/>
      <path class="cls-1" d="M222.8,111.02c-.02,2-.76,3.33-2.26,4.15-1.71.94-3.52.92-4.92-.41-3.29-3.12-6.55-6.29-9.6-9.63-1.65-1.81-1.43-4.01.29-5.76,1.72-1.75,3.95-2.03,5.76-.4,3.43,3.1,6.63,6.45,9.87,9.76.64.65.92,1.6.87,2.3Z"/>
    </g>
  </g>
</svg>