<?xml version="1.0" encoding="UTF-8"?>
<svg id="katman_2" data-name="katman 2" xmlns="http://www.w3.org/2000/svg" viewBox="0 0 408.81 407.4">
  <defs>
    <style>
      .cls-1 {
        fill: #000;
        stroke-width: 0px;
      }
    </style>
  </defs>
  <g id="katman_1" data-name="katman 1">
    <g>
      <path class="cls-1" d="M408.81,206.89c-1.63,5.09-5.03,8.89-8.77,12.58-32.43,31.92-64.93,63.77-97.09,95.96-10.23,10.25-20.79,7.7-26.41,1.95-5.79-5.93-7.79-16.48,2.49-26.39,22.8-21.97,45.17-44.4,67.68-66.66.98-.97,2.4-1.66,2.63-3.36-1.57-.72-3.17-.35-4.71-.35-63.2-.02-126.4-.01-189.6-.03-10.33,0-16.94-4.83-18.82-13.63-2.07-9.68,5.16-19.34,15.03-20.04,1.85-.13,3.72-.11,5.58-.11,62.54,0,125.07,0,187.61,0,1.57,0,3.14,0,5.04,0-.39-2.03-1.86-2.84-2.9-3.88-22.71-22.45-45.42-44.9-68.19-67.29-4.95-4.87-7.86-10.33-6.24-17.49,2.72-12.07,16.87-17.22,26.72-9.69,1.37,1.05,2.63,2.25,3.86,3.46,32.96,32.52,65.88,65.08,98.89,97.55,3.08,3.02,5.27,6.5,7.2,10.25v7.19Z"/>
      <path class="cls-1" d="M34,203.81c0,49.89,0,99.79-.01,149.68,0,4.73.44,9.28,3.46,13.22,4.13,5.36,9.81,6.84,16.23,6.83,48.56-.03,97.13-.02,145.69-.01,1.86,0,3.73,0,5.58.14,9.09.66,15.71,7.87,15.62,16.95-.08,9.02-6.94,16.25-15.97,16.67-3.85.18-7.72.08-11.57.08-46.97,0-93.93.06-140.9-.02-25.3-.04-45.3-15.85-50.89-40.01C.31,363.31,0,359.21,0,355.06.02,254.21,0,153.36.03,52.5.04,22.19,22.06.09,52.35.04,102.38-.04,152.41.04,202.44,0c7.66,0,13.54,3.01,16.67,10.05,2.81,6.32,1.98,12.5-2.57,17.91-2.85,3.39-6.53,5.4-11.01,5.72-1.99.14-3.99.18-5.98.18-48.3,0-96.6,0-144.89.03-2.38,0-4.81.11-7.15.52-6.96,1.23-12.43,7.13-13.22,14.14-.24,2.11-.28,4.25-.28,6.37-.01,49.63-.01,99.26-.01,148.88Z"/>
    </g>
  </g>
</svg>