<?xml version="1.0" encoding="UTF-8"?>
<svg id="katman_2" data-name="katman 2" xmlns="http://www.w3.org/2000/svg" viewBox="0 0 999.1 227.93">
  <defs>
    <style>
      .cls-1 {
        fill: #eaeaea;
      }

      .cls-1, .cls-2 {
        stroke-width: 0px;
      }

      .cls-2 {
        fill: #0e402d;
      }
    </style>
  </defs>
  <g id="katman_1" data-name="katman 1">
    <g>
      <g>
        <path class="cls-1" d="M997.25,79.17c-.02-6.75-1.02-11.63-3.15-15.33l-.12-.2c-1.26-2.09-2.66-3.98-4.18-5.66l.16-.17.33-.41c4.76-5.95,7.17-12.29,7.17-18.85v-2.06c0-5.3-1.66-10.63-4.92-15.86l-.28-.45-.32-.43c-8.01-10.59-17.43-12.81-23.92-12.81h-1.34c-5.57,0-13.88,1.73-21.84,9.95l-.31.32-.28.34c-5.27,6.32-7.94,13.11-7.94,20.17v1.96c0,5.21,1.58,13.02,9.12,20.69l.44.44c-2.74,3.84-4.07,7.57-4.64,10.8-1.42-8.67-6.66-15.89-15.12-20.63l-.77-.43-.82-.31c-14.11-5.39-27.81-8.12-40.71-8.12-18.53,0-34.29,5.72-46.83,17.01l-.18.17-.18.17c-14.72,14.4-22.19,34.47-22.19,59.67,0,3.55.21,6.98.58,10.3-4.93-2.82-9.77-3.62-13.66-3.62h-1.96c-4.88,0-9.85,1.44-14.78,4.29l-.51.3-.48.34c-3.74,2.68-6.49,5.53-8.52,8.38-.67-.89-1.39-1.77-2.17-2.62l-.38-.41-.42-.38c-5.84-5.27-12.08-7.95-18.57-7.95-.57,0-2,.02-6.57.11l28.67-32.45c6.93-6.77,10.44-14.21,10.44-22.13v-.62c0-6.98-2.78-13.68-8.03-19.38l-.46-.5-.51-.44c-5.8-5.02-11.85-7.57-18.04-7.57l-69.08.41c-3.59,0-7.47,1.04-11.86,3.17l-.65.32-.61.4c-3.83,2.48-6.64,5.2-8.71,7.97-.89-1.29-1.88-2.54-2.99-3.75l-.46-.5-.51-.44c-5.8-5.02-11.85-7.57-18.04-7.57l-69.08.41c-3.59,0-7.47,1.04-11.86,3.17l-.65.32-.61.4c-6.91,4.47-10.53,9.71-12.34,14.64l-.08-.13c-1.26-2.09-2.66-3.98-4.18-5.66l.16-.17.33-.41c4.76-5.95,7.17-12.29,7.17-18.85v-2.06c0-5.3-1.66-10.63-4.92-15.86l-.28-.45-.32-.43c-8.01-10.59-17.43-12.81-23.92-12.81h-1.34c-5.57,0-13.88,1.73-21.84,9.95l-.31.32-.28.34c-5.27,6.32-7.94,13.11-7.94,20.17v1.96c0,5.21,1.58,13.02,9.12,20.69l.44.44c-1.54,2.16-2.64,4.29-3.4,6.31-.82-2.51-1.92-4.62-3.33-6.4-7.54-10.16-16.67-12.3-23.02-12.3-7.61,0-14.62,2.98-20.29,8.61-3.7,3.61-6.24,8.6-7.56,14.85l-.18.85-.05.87c-.33,5.25-.79,10.56-1.38,15.77-2.07,14.97-3.83,21.77-4.94,24.84l-.09.26-.08.26c-1.71,5.49-2.93,8.45-3.66,9.97-2.16-6.35-3.95-16.52-3.95-32.81,0-4.18.2-9.37.59-15.42l.03-.39v-.39c0-4.29-1.19-8.74-3.54-13.22l-.28-.54-.34-.51c-7.46-11.26-17.14-13.63-23.94-13.63-10.34,0-18.98,5.09-24.55,14.38-2.47-4.81-5.8-8.48-9.97-10.91-5.41-3.82-14.08-5.33-29.99-5.33-33.82,0-58.11,10.6-72.19,31.51l-.21.31-.19.32c-5.96,10.15-8.98,20.39-8.98,30.43v5.68c0,5.79,1.03,12.27,3.06,19.25l.06.22.07.22c5.11,15.32,14.3,27.51,27.29,36.2,5.44,3.65,11.03,6.63,16.62,8.85,5.12,2.24,12.02,4.24,21.01,6.09v8.33c0,3.27.71,6.67,2.18,10.39l.28.71.36.66c5.6,10.21,14.39,15.83,24.76,15.83h1.03c2.24,0,4.53-.32,6.81-.95l.24-.07.24-.08c13.03-4.2,20.5-14.68,20.5-28.76,0-7.56.03-23.45.07-46.82,2.29,6.41,5.11,12.14,8.47,17.22l.16.23c10.85,15.59,25.85,23.83,43.39,23.83,8.62,0,16.67-1.95,24.06-5.8,4.89,4,10.76,6.11,17.22,6.11,4.86,0,9.55-1.23,13.95-3.66l.41-.23.39-.26c6.31-4.15,9.81-9.03,11.67-13.72.75,2.01,1.7,3.77,2.87,5.3,7.45,10.37,16.63,12.56,23.04,12.56h.83c5.13,0,10.24-1.6,15.21-4.77l.66-.42.6-.5c1.44-1.21,2.69-2.42,3.79-3.64,7.26,7.67,14.78,9.32,19.88,9.32,1.01,0,4.08,0,66.72-1.55,8.88-.02,15.1-1.6,19.54-4.98,2.04-1.5,3.74-3.06,5.19-4.64.06.08.11.17.17.25l.33.44.37.41c7.47,8.33,15.32,10.07,20.59,10.07,1.01,0,4.08,0,66.72-1.55,8.88-.02,15.1-1.6,19.54-4.98,2.81-2.07,4.99-4.25,6.71-6.45,7.63,10.64,17.39,12.99,24.48,12.99h.83c5.62,0,11.05-1.54,16.15-4.58l.42-.25.4-.29c7.08-5.04,10.55-10.75,12.12-15.92,2.34,2.82,4.96,5.45,7.85,7.89l.26.22.27.2c11.23,8.45,23.69,12.73,37.04,12.73h2.79c8.57,0,17.46-1.83,26.51-5.44,4.32,2.57,9.1,3.9,14.15,3.9,5.81,0,11.31-1.74,16.36-5.18l.47-.32.44-.36c4.46-3.71,7.19-7.64,8.83-11.38.79,2.41,1.85,4.47,3.2,6.23,7.45,10.37,16.63,12.56,23.04,12.56h.83c5.13,0,10.24-1.6,15.21-4.77l.66-.42.6-.5c9.27-7.75,11.22-16.02,11.22-21.59v-.1c-.07-8.02-.7-34.71-1.86-79.32Z"/>
        <g>
          <path class="cls-2" d="M339.49,57.97c12.93,0,20.74,1.14,23.43,3.41,3.16,1.65,5.57,4.82,7.22,9.5.48,2,.72,3.03.72,3.1,0,1.31-.07,5.57-.21,12.8-.14,57.18-.21,91.96-.21,104.34,0,8.94-4.06,14.72-12.18,17.34-1.24.34-2.44.52-3.61.52h-1.03c-5.99,0-10.73-3.2-14.24-9.6-.9-2.27-1.34-4.27-1.34-5.99v-18.47c0-.21-2.24-.55-6.71-1.03-9.63-1.86-16.86-3.85-21.67-5.99-4.89-1.92-9.74-4.5-14.55-7.74-10.8-7.22-18.34-17.24-22.6-30.03-1.72-5.92-2.58-11.21-2.58-15.89v-5.68c0-7.91,2.44-16.03,7.33-24.36,11.77-17.48,32.51-26.21,62.23-26.21ZM302.33,111.02v.83c0,14.31,8.91,23.7,26.73,28.17,4.33,1.24,7.36,1.86,9.08,1.86.14-24.63.21-41.76.21-51.4h-.31c-12.38,0-22.22,2.37-29.52,7.12-4.13,3.03-6.19,7.5-6.19,13.42Z"/>
          <path class="cls-2" d="M403.99,59.83c5.64,0,10.29,2.75,13.93,8.26,1.45,2.75,2.17,5.3,2.17,7.64-.41,6.33-.62,11.73-.62,16.2,0,21.54,2.99,36.84,8.98,45.93,1.65,2.27,3.71,3.41,6.19,3.41,3.85,0,7.36-3.1,10.53-9.29,1.58-2.68,3.37-7.22,5.37-13.62,1.92-5.3,3.78-14.45,5.57-27.45.62-5.5,1.1-11.01,1.44-16.51.83-3.92,2.24-6.85,4.23-8.77,3.44-3.44,7.4-5.16,11.87-5.16,5.3,0,9.8,2.55,13.52,7.64,1.79,2.13,2.68,6.74,2.68,13.83,1.51,46.92,2.27,72.24,2.27,75.96,0,5.64-2.72,10.25-8.15,13.83-2.62,1.44-5.33,2.17-8.15,2.17-6.26,0-11.22-3.3-14.86-9.91h-.21c-7.71,6.4-16.44,9.6-26.21,9.6-13.69,0-24.87-6.23-33.54-18.68-9.29-14.04-13.93-35.02-13.93-62.96,0-12.38.65-19.82,1.96-22.29,3.44-6.54,8.43-9.8,14.96-9.8Z"/>
          <path class="cls-2" d="M524.23,18.96h1.34c5.5,0,10.29,2.68,14.35,8.05,2.06,3.3,3.1,6.47,3.1,9.5v2.06c0,3.78-1.51,7.57-4.54,11.35-4.27,4.47-8.98,6.71-14.14,6.71h-1.34c-3.92,0-7.74-1.55-11.46-4.64-3.79-3.85-5.68-7.95-5.68-12.28v-1.96c0-4.2,1.72-8.36,5.16-12.49,4.06-4.2,8.46-6.3,13.21-6.3ZM525.98,60.76h1.14c5.78,0,10.49,3.03,14.14,9.08,1.03,1.79,1.55,4.95,1.55,9.49,1.17,44.86,1.79,71.28,1.86,79.26,0,4.4-2.31,8.53-6.92,12.38-3.03,1.93-5.95,2.89-8.77,2.89h-.83c-5.3,0-9.77-2.58-13.42-7.74-1.72-2.13-2.58-6.3-2.58-12.49-1.17-49.06-1.75-74.99-1.75-77.82,0-4.2,2.13-8.19,6.4-11.97,3.16-2.06,6.23-3.1,9.19-3.1Z"/>
          <path class="cls-2" d="M646.21,56.84c3.16,0,6.54,1.55,10.11,4.64,3.23,3.51,4.85,7.26,4.85,11.25v.62c0,4.68-2.37,9.29-7.12,13.83l-46.96,53.15v.21c20.64-.48,31.82-.72,33.54-.72,3.44,0,6.95,1.62,10.53,4.85,3.1,3.37,4.64,6.98,4.64,10.84v.93c0,5.16-2.55,9.6-7.64,13.31-2.2,1.72-6.37,2.58-12.49,2.58-41.76,1.03-63.95,1.55-66.57,1.55-4.13,0-8.02-2.03-11.66-6.09-2.41-3.23-3.61-6.5-3.61-9.8v-.62c0-4.61,2.37-9.22,7.12-13.83l47.58-53.87c0-.14-.04-.21-.1-.21-4.82,0-15.31.07-31.48.21-3.1,0-6.37-1.44-9.8-4.33-3.44-3.37-5.16-7.16-5.16-11.35v-1.03c0-5.5,2.82-10.08,8.46-13.73,2.68-1.31,4.88-1.96,6.61-1.96l69.15-.41Z"/>
          <path class="cls-2" d="M759.12,56.84c3.16,0,6.54,1.55,10.11,4.64,3.23,3.51,4.85,7.26,4.85,11.25v.62c0,4.68-2.37,9.29-7.12,13.83l-46.96,53.15v.21c20.64-.48,31.82-.72,33.54-.72,3.44,0,6.95,1.62,10.53,4.85,3.1,3.37,4.64,6.98,4.64,10.84v.93c0,5.16-2.55,9.6-7.64,13.31-2.2,1.72-6.37,2.58-12.49,2.58-41.76,1.03-63.95,1.55-66.57,1.55-4.13,0-8.02-2.03-11.66-6.09-2.41-3.23-3.61-6.5-3.61-9.8v-.62c0-4.61,2.37-9.22,7.12-13.83l47.58-53.87c0-.14-.04-.21-.1-.21-4.82,0-15.31.07-31.48.21-3.1,0-6.37-1.44-9.8-4.33-3.44-3.37-5.16-7.16-5.16-11.35v-1.03c0-5.5,2.82-10.08,8.46-13.73,2.68-1.31,4.88-1.96,6.61-1.96l69.15-.41Z"/>
          <path class="cls-2" d="M799.37,137.86h1.96c5.92,0,10.97,3.13,15.17,9.39,1.38,2.96,2.06,5.47,2.06,7.53v1.03c0,.07.07.1.21.1l-.21.31v.72c0,5.44-2.75,10.11-8.26,14.04-3.23,1.93-6.57,2.89-10.01,2.89h-.83c-6.67,0-12.01-3.3-16-9.91-1.1-2.61-1.65-4.95-1.65-7.02v-1.55c0-5.71,2.92-10.66,8.77-14.86,3.1-1.79,6.02-2.68,8.77-2.68Z"/>
          <path class="cls-2" d="M883.79,54.16c11.49,0,23.63,2.44,36.43,7.33,6.26,3.51,9.39,8.53,9.39,15.07l-.1,1.55c2.75,2.89,4.13,7.64,4.13,14.24.14,0,.21,2.24.21,6.71s-.04,8.88-.1,13.42c.55,25.94.83,40.63.83,44.07,0,4.75-2.24,8.98-6.71,12.69-3.03,2.06-6.23,3.1-9.6,3.1-4.61,0-8.71-1.89-12.28-5.68l-.21-.1c-9.84,4.89-19.23,7.33-28.17,7.33h-2.79c-10.73,0-20.68-3.44-29.83-10.32-12.38-10.46-18.58-25.25-18.58-44.38,0-21.95,6.19-38.98,18.58-51.09,10.32-9.29,23.25-13.93,38.81-13.93ZM858.82,118.87c0,10.94,2.89,17.89,8.67,20.85,2.34,1.17,5.19,1.75,8.57,1.75h.21c6.88,0,12.9-2.03,18.06-6.09,1.1-1.17,2.24-3.23,3.41-6.19,2.34-7.29,3.51-13.9,3.51-19.82,0-2.82-.07-9.56-.21-20.23-6.33-1.72-12.14-2.58-17.44-2.58-10.67,0-17.68,3.89-21.05,11.66-2.48,6.12-3.72,13-3.72,20.64Z"/>
          <path class="cls-2" d="M966.67,18.96h1.34c5.5,0,10.29,2.68,14.35,8.05,2.06,3.3,3.1,6.47,3.1,9.5v2.06c0,3.78-1.51,7.57-4.54,11.35-4.27,4.47-8.98,6.71-14.14,6.71h-1.34c-3.92,0-7.74-1.55-11.46-4.64-3.79-3.85-5.68-7.95-5.68-12.28v-1.96c0-4.2,1.72-8.36,5.16-12.49,4.06-4.2,8.46-6.3,13.21-6.3ZM968.42,60.76h1.14c5.78,0,10.49,3.03,14.14,9.08,1.03,1.79,1.55,4.95,1.55,9.49,1.17,44.86,1.79,71.28,1.86,79.26,0,4.4-2.31,8.53-6.92,12.38-3.03,1.93-5.95,2.89-8.77,2.89h-.83c-5.3,0-9.77-2.58-13.42-7.74-1.72-2.13-2.58-6.3-2.58-12.49-1.17-49.06-1.75-74.99-1.75-77.82,0-4.2,2.13-8.19,6.4-11.97,3.16-2.06,6.23-3.1,9.19-3.1Z"/>
        </g>
      </g>
      <g>
        <circle class="cls-1" cx="113.96" cy="113.96" r="113.96"/>
        <path class="cls-2" d="M71.1,62.37c-7.4,2.29-12.51,9.18-12.56,17.94.25,5.54,2.96,10.72,8.57,14.31,1.44.92,2.2.96,3.14-.79,4.79-8.82,11.49-15.91,20.06-21.15,1.73-1.06,1.78-1.85.7-3.41-4.39-6.32-12.51-9.19-19.91-6.9ZM149.88,82.25c-16.28-11.03-33.49-12.88-51.07-4.06-17.65,8.86-26.09,24-26.98,41.83.18,12.42,3.32,22.12,9.57,30.85,1.34,1.87,2.06,2.1,3.83.32,21.59-21.72,43.24-43.38,64.97-64.96,1.84-1.82,1.73-2.6-.31-3.99ZM138.98,109.94c-9.19,9.27-18.42,18.49-27.69,27.68-1.34,1.33-.63,1.73.58,2.23,2.85,1.19,5.79,1.91,8.89,1.91,15.92.02,26.85-16.24,20.65-30.79-.4-.95-.51-2.98-2.43-1.04ZM60.16,102.63c.94-.78.87-1.33-.14-2.13-1.51-1.21-3.1-2.48-4.17-4.05-1.43-2.11-2.29-1.4-3.66-.02-13.19,13.22-26.39,26.43-39.59,39.64.82,3.77,1.83,7.46,3.05,11.06,14.57-14.57,29.14-29.14,43.72-43.71.26-.26.51-.54.8-.78ZM113.96,10.24C56.68,10.24,10.24,56.68,10.24,113.96c0,3.81.21,7.57.61,11.28,12.68-12.68,25.36-25.38,38.06-38.05,1.14-1.14,1.33-2.21,1.08-3.71-2.07-12.38,5.09-24.65,16.9-29.09,11.84-4.45,25.2-.08,31.88,10.68,1.28,2.06,2.24,2.3,4.52,1.63,21.73-6.33,41.02-1.85,57.74,13.45,2.8,2.56,2.8,4.9.11,7.63-4.1,4.17-8.19,8.35-12.41,12.4-1.44,1.38-1.59,2.34-.59,4.16,11.63,21.03-3.82,46.65-27.85,46.26-5.28-.08-10.31-1.39-14.82-4.17-1.58-.97-2.38-.62-3.5.53-4.87,4.97-9.81,9.88-14.75,14.78-3.07,3.05-5.34,3.04-8.25-.1-12.1-13.06-17.32-28.45-15.59-46.18.08-.83.15-1.66.19-2.5,0-.15-.12-.3-.21-.51-1.01.17-1.47,1.05-2.09,1.67-14.03,14.01-28.05,28.04-42.07,42.06,16.17,36.23,52.52,61.49,94.76,61.49,57.29,0,103.72-46.44,103.72-103.72S171.25,10.24,113.96,10.24ZM138.67,181.62c-.11,2.83-1.96,4.7-4.47,4.68-2.51-.02-4.34-1.91-4.39-4.76-.07-4.27-.08-8.53,0-12.8.05-2.82,1.94-4.7,4.46-4.68,2.51.02,4.26,1.91,4.41,4.75,0,.19,0,.37,0,.56,0,1.95,0,3.9,0,5.84,0,2.13.06,4.27-.02,6.4ZM172.1,167.84c-1.71.94-3.52.92-4.92-.41-3.29-3.12-6.55-6.29-9.6-9.63-1.65-1.81-1.43-4.01.29-5.76,1.72-1.75,3.95-2.03,5.76-.4,3.43,3.1,6.63,6.45,9.87,9.76.64.65.92,1.6.87,2.3-.02,2-.76,3.33-2.26,4.15ZM183.06,132.83c-2.22.09-4.45.02-6.68.02-2.13,0-4.27.07-6.4-.02-2.66-.12-4.48-1.92-4.54-4.33-.06-2.52,1.81-4.47,4.61-4.52,4.36-.09,8.72-.09,13.08,0,2.66.06,4.48,1.91,4.54,4.32.06,2.51-1.82,4.42-4.62,4.53Z"/>
      </g>
    </g>
  </g>
</svg>