<?xml version="1.0" encoding="UTF-8"?>
<svg id="katman_2" data-name="katman 2" xmlns="http://www.w3.org/2000/svg" viewBox="0 0 328.51 328.74">
  <defs>
    <style>
      .cls-1 {
        fill: #000;
        stroke-width: 0px;
      }
    </style>
  </defs>
  <g id="katman_1" data-name="katman 1">
    <path class="cls-1" d="M328.51,311.18c-.86.68-.68,1.76-.97,2.64-4.81,14.74-22.63,19.74-34.36,9.6-.97-.84-1.87-1.76-2.77-2.66-41.2-41.19-82.4-82.37-123.54-123.63-2.03-2.04-3.08-2.14-5.17-.03-41.35,41.49-82.82,82.87-124.19,124.34-6.81,6.82-14.7,9.05-23.69,5.83-13.87-4.96-18.26-22.32-8.72-33.54.97-1.14,2.05-2.18,3.11-3.24,41.19-41.2,82.37-82.41,123.63-123.54,1.99-1.98,1.99-2.89,0-4.86C90.27,120.66,48.79,79.15,7.3,37.65-3.68,26.67-1.94,10.27,10.86,3.01c2.84-1.61,5.99-2.11,9.04-3.01h2.57c7.81.95,13.21,5.72,18.53,11.06,40.14,40.31,80.42,80.48,120.57,120.77,2.18,2.19,3.2,2.2,5.39,0,40.15-40.3,80.43-80.47,120.57-120.78,5.31-5.34,10.7-10.12,18.52-11.06h2.57c4.13.97,8.18,2.03,11.65,4.73,4.41,3.42,6.61,8.13,8.24,13.24v7.06c-1.57,6.5-5.75,11.2-10.36,15.79-40.49,40.37-80.88,80.84-121.38,121.2-2.11,2.1-1.92,3.09.07,5.08,40.56,40.45,81.03,80.99,121.6,121.43,4.54,4.53,8.57,9.2,10.07,15.6v7.06Z"/>
  </g>
</svg>